<?xml version="1.0" encoding="utf-8"?>
<!-- Generator: Adobe Illustrator 25.2.1, SVG Export Plug-In . SVG Version: 6.00 Build 0)  -->
<svg version="1.1" id="Layer_1" xmlns="http://www.w3.org/2000/svg" xmlns:xlink="http://www.w3.org/1999/xlink" x="0px" y="0px"
	 viewBox="0 0 200 200" style="enable-background:new 0 0 200 200;" xml:space="preserve">
<style type="text/css">
	.st0{fill-rule:evenodd;clip-rule:evenodd;fill:#1D2D36;}
</style>
<path class="st0" d="M144.9,108.4c2.1-10.9,14.9-16.5,24.4-15.9l0,0c3.7,0.2,6.8,1.3,8.7,3.4l0,0l0,0c0.8-0.8,1.5-1.6,2.3-2.4
	c0.4-0.5,1.7-0.3,2.8-0.1c1.3,0.2,2.6,0.8,3.5,0.8c0.9,0,3-0.7,5-0.9c2-0.3,3.9-0.2,3.6,0.6l-1.8,4.4h0l-5.9,14.5
	c-1.2,2.9,3.4,2.1,9.7-4.6c1.1,0.7,1.6,0.8,2.7,3.5c-5.4,4.7-10.6,8-17.8,10.5c-6.4,2.2-11.2-1-12.7-6.3c-9.1,8.6-21.9,8.5-25.6-1.2
	c-5.9,2.9-13.1,6.1-16,6.9c-2.3,0.7-4.4,1.1-6.4,1.2c-3.2,0-6.6-2.9-5.5-7.3c-5.2,2.3-9.4,3.8-15.4,5.9c-6.4,2.2-10.2-0.2-11.6-5.5
	c-9.2,8.6-21.9,8.5-25.6-1.2c-3.6,1.7-8.6,4.3-13.2,6.1c-7.4,3.3-16,2.7-22.4-4.1l2.1-3.3c3,3.2,6.7,3.1,9.6,0.4
	c3.1-2.8,5-8.2,3.6-12.6c-0.6-1.9-2.8-3.4-6.9-3.2l1.3-3.4c4.2-0.2,7.5-0.7,9.3-3.3c2.5-3.7,2.6-9.4-2.9-9.2c-1,0-2.1,0.2-3.4,0.7
	c-0.9,2.8-2.6,6.1-4,9.6c-3,7.9-6.5,16.7-10.5,22.3c-4.7,6.7-9.8,8.1-13.9,7.8c-4.3-0.3-7.6-1.6-12.3-5.8c0-1.8,0.2-2.6,0.5-4.8
	c1.6,2.3,7.3,4.8,9.1,2.1c4.1-6,8.6-17.6,12-25c-3,1-5.9,2.8-9.8,5.6c0.1-0.5-1.3-1.5-1.3-2.8c6.4-7.4,17.7-11.8,25.3-13.5
	c11.6-2.5,24.1,1.1,26,8.5c1.2,4.9-4.5,9.5-10,10.2c3.1,1.8,6.4,5,7.3,8.9c0.4,2,0.3,4.1-0.3,6.1c1.8-0.8,4-2,5.5-2.6
	c2.3-15.7,26.6-20.8,33.3-13.2l2.3-2.4c0.4-0.5,1.7-0.3,2.8-0.1c1.3,0.2,2.6,0.8,3.5,0.8c0.9,0,3-0.7,5-0.9c2-0.3,3.9-0.2,3.6,0.6
	l-7.6,18.9c-1.7,4.3,10.9-3.3,11.7-3.7l5.4-11.6l-5.6,0.1l1-4.8h6.2c1-1.3,1.3-3,2.7-4c1.8-1.4,6-0.6,7.9-1.9
	c1.7-1.1,2.9-2.7,4.5-5.2c1.3-2.2,6.1-1.6,5.2,0.4l-4.3,10.8l5.5-0.1c2.6,0.1,0.4,4.4-2.6,4.5l-4.5,0.1l-5.2,13.6
	C133.1,115.3,139.8,111.4,144.9,108.4L144.9,108.4z M94.7,99.2c-0.6-2.1-2.4-2.6-3.9-2.4c-3.7,0.4-7.2,4.5-9,7.3
	c-2.9,4.5-2.2,11.2,2.4,10C89.1,112.7,95.6,102.1,94.7,99.2L94.7,99.2z M175.3,99.2c-0.6-2.1-2.4-2.6-3.9-2.4
	c-3.7,0.4-7.2,4.5-9,7.3c-2.9,4.5-2.2,11.2,2.4,10C169.6,112.7,176.2,102.1,175.3,99.2L175.3,99.2z"/>
</svg>
