<?xml version="1.0" encoding="utf-8"?>
<!-- Generator: Adobe Illustrator 25.2.1, SVG Export Plug-In . SVG Version: 6.00 Build 0)  -->
<svg version="1.1" id="Layer_1" xmlns="http://www.w3.org/2000/svg" xmlns:xlink="http://www.w3.org/1999/xlink" x="0px" y="0px"
	 viewBox="0 0 200 200" style="enable-background:new 0 0 200 200;" xml:space="preserve">
<style type="text/css">
	.st0{fill:#1D2D36;}
</style>
<path class="st0" d="M154.6,104c0.1-0.7,0.2-1.4,0.2-2.1C154.7,102.6,154.6,103.3,154.6,104z"/>
<path class="st0" d="M67.1,146.9c-7.5-5.1-13.9-11.6-18.7-19.2C38.4,111.9,37.8,97,37.8,97c-1.5,29.3,15.6,48.6,26.7,58
	C65,152.2,65.9,149.4,67.1,146.9z"/>
<path class="st0" d="M112.1,139.8c2.2,4.6,2.2,5.7,2.2,5.7s2.1-0.2,6.6,2c3.6,1.8,4.2,2.8,4.2,2.8s1.1-0.6,1.1-2.2
	c0.1-4.6-0.1-5.5-0.3-6s-5.6-6.2-8.4-7.2s-9.2-0.4-9.2-0.4S110.2,135.6,112.1,139.8L112.1,139.8z"/>
<path class="st0" d="M128.4,163.4c0,0-0.4,1.9-3.3,5.1c-2.3,2.6-3.8,2.9-3.8,2.9s0.3,1.4-0.8,5.9c-0.9,3.9-2.1,5.7-2.1,5.7
	c2.4-0.3,4.6-1.2,6.5-2.7c3-2.4,5.8-9.5,6-10.6C131.1,168.6,128.4,163.4,128.4,163.4z"/>
<path class="st0" d="M100.5,186.8c-3.8-1.9-4.7-3.7-4.7-3.7s-1.6,1.9-6.2,2.8c-1.7,0.3-3.5,0.2-5.1-0.2c0,0,1.7,4.7,3.5,6.2
	c1.8,1.6,11.9,2.3,13.5,1.8s7.4-5,7.4-5S105.6,189.3,100.5,186.8L100.5,186.8z"/>
<path class="st0" d="M72.3,159.6c-2.3-4.5-2.4-6.1-2.4-6.1s-4.3,6.5-4.6,8s-0.4,8,2.3,11.5c1.8,2.2,4.2,3.8,6.8,4.8
	c0,0-0.6-1.6-0.1-7.1c0.5-5.1,1.9-6,1.9-6S74.9,164.7,72.3,159.6L72.3,159.6z"/>
<path class="st0" d="M89.2,140.5c0,0,0.8-1.9,4.3-4.8c2.8-2.3,4.8-2.8,4.8-2.8l-6.8-3.6c0,0-2.9,0-7.1,1.7c-5.1,1.9-6.5,4-6.9,4.5
	c-0.4,0.4,0,6.7,0,6.7c1.9-0.9,3.9-1.3,5.9-1.4C88.2,140.4,89.2,140.5,89.2,140.5L89.2,140.5z"/>
<path class="st0" d="M111.2,159.1c-0.2-3.1-0.8-5.1-1.4-6.3l3.1-5.1l-4.9,3.5c-2.1-0.4-4.1-0.7-6.2-0.8c-3.1-0.3-5.3-0.4-6.6-0.4
	l-5.2-6.9l2.6,8c-0.5,0.9-1.3,2.3-2.4,4.4c-1.1,2-2,4-2.8,6.1l-9.1,3.1l9.4-0.9c1,1.9,2.3,3.5,3.9,4.9c2.3,2,3.8,2.9,4.8,3.3l-0.1,7
	l2.4-6.7c2.2-0.4,4.3-1.2,6.3-2.3c1.6-0.9,3.2-1.9,4.7-3l7.7,3.1l-6.4-5.3C111.2,163.6,111.4,161.8,111.2,159.1L111.2,159.1z"/>
<path class="st0" d="M75.5,33.7H47c0,5-4.2,9.1-9.2,9.1h-0.1v35.4C42.5,57.8,56.8,41.2,75.5,33.7z"/>
<path class="st0" d="M158.8,70.9V42.8h-0.1c-5,0-9.1-4.1-9.2-9.1h-29.6C136.2,40.4,150.5,54.2,158.8,70.9z"/>
<path class="st0" d="M133,161.4c11.2-8.7,24.4-23.6,28.4-47.4c5.7-33.6-18.4-58.1-18.4-58.1s15.4,16.4,11.6,46.4
	c-0.1,1.2-0.3,2.4-0.5,3.5c0.1-0.7,0.3-1.3,0.4-1.8c-2.7,22.2-6.3,34.5-15.5,48.7C136.7,156.2,134.7,159.1,133,161.4"/>
<path class="st0" d="M136.4,130.4c-4.3,2.7-9,4.8-13.9,6.2c6.7,6.3,10.5,15.2,10.6,24.4c0,0.1,0,0.3,0,0.4c1.7-2.3,3.7-5.2,6-8.8
	c9.2-14.2,12.8-26.5,15.5-48.7C153.7,109,150.3,121.7,136.4,130.4L136.4,130.4z"/>
<path class="st0" d="M104,52.2c-0.2-1.9,0.2-2.8,0.2-2.8s-1.3,0-1.8,0.3c-0.6,0.3-1.1,0.9-1.3,1.6c0.4-0.5,0.8-0.8,1.3-1.2
	c0.4-0.2,0.9-0.3,1.3-0.2c-0.1,0.7-0.2,1.4-0.1,2.1c0.6,3.9-2.8,4.4-2.8,4.4S104.4,56.5,104,52.2L104,52.2z"/>
<path class="st0" d="M91.8,54.5c1.1,0,2.4-1.7,2.6-2c0.1,0,0.2,0,0.3-0.1c0,0-4-0.1-4.6-0.1c-0.2,0,0,0.6,0.1,0.6h0.2
	C90.6,53.2,91,54.5,91.8,54.5L91.8,54.5z M92.3,52.7c0.6,0,1.1-0.1,1.7-0.1c-0.3,0.3-1.3,1.6-2.2,1.6c-0.2,0-0.3-0.1-0.4-0.2
	c0.2-0.1,0.4-0.2,0.5-0.4C92.1,53.2,92.2,52.9,92.3,52.7L92.3,52.7z M92.1,52.7c-0.1,0.2-0.2,0.4-0.3,0.5c-0.2,0.2-0.3,0.3-0.6,0.4
	c-0.1-0.3-0.2-0.5-0.3-0.8C91.2,52.7,91.6,52.7,92.1,52.7L92.1,52.7z"/>
<path class="st0" d="M103.1,51.5c0,0-2.8,0.8-2,2.2c0.6,1,1.6,0.2,1.6,0.2s-0.8,0.4-1.1-0.3C101,52.5,103.1,51.5,103.1,51.5
	L103.1,51.5z"/>
<path class="st0" d="M143.2,56.2c-10.9-13.7-27.4-21.6-44.9-21.6c-31.7,0-57.3,25.5-57.3,57c0,21.4,11.8,40,29.3,49.7
	c11.4-15.6,33.2-18.9,48.8-7.6c1.2,0.9,2.3,1.8,3.3,2.8c6.6-3.4,16.2-11.1,23.5-27.6C158.1,81.4,146.1,60.5,143.2,56.2L143.2,56.2z
	 M81.3,56.9c0,0,0.6,2.9,2.4,3.7s3.8-0.5,4.7-1.2c1.9-1.3,2.6-1.2,2.6-1.2c-0.3-0.1-0.5-0.2-0.8-0.3c-0.3-0.2-0.9-0.6-1.5-0.6
	s-2.7,0.9-3.2,1.1s-1.3-0.3-1.6-1.1c-0.2-0.6-0.2-1.2-0.2-1.7c0,0-0.7-0.5-0.5-1.1c0.1-0.5,2.1-1.1,2.5-1.3s1.9-0.8,2-1.1
	s0.2-2.1,0.6-2.6s2.1-0.3,2.8-0.4c0.7-0.1,0.7-0.9,1.2-1.1c-0.1-0.2-0.2-0.6-0.4-1.1h6l0.2-0.4h-6.3c-0.3-0.8-0.7-1.7-1-2.5
	c-0.7-1.6-1.5-2.9-1.3-3c0.1-0.1,1.8,0.1,2.3,0.7c0.3,0.4,0.4,0.9,0.5,1.4c0,0.1,1.2-0.6,2,0.3c0.8,0.9-0.3,2-0.3,2h3.3
	c0,0-1-0.5-0.9-1.5c0.1-1.4,1.8-1.2,1.8-1.2s-1.3-3.2,1.8-3.2c2.3,0,1.4,3.1,1.4,3.1s1.2,0.1,1.2,1.2c0,0.6-0.3,1.2-0.9,1.5h2.3
	c0,0-0.8-1.1-0.1-1.9s1.8-0.7,1.8-0.7s-0.2-1.2,0.4-1.8c0.4-0.4,1-0.5,1.5-0.5c0.1,0-1.1,2.3-1.5,4c-0.2,1.1-0.3,2.2-0.3,3.4
	c0.4,0.6,0.9,1.1,1.5,1.6c0.8,0.8,1.6,1,2.3,1.9c0.8,0.9,0.7,2.6,0.7,2.6s-0.2,0.1-1.3-0.2c-0.7-0.2-1.3-0.6-1.9-1
	c0.4,0.7,1,1.2,1.8,1.4s1.7,0.3,2.5,0.1c0,0-1.3,2-2.3,2.4c-0.6,0.2-1.3,0.4-1.9,0.4c0,0,1.1,0.4,1.9,0.1c0.4-0.1,0.8-0.3,1.2-0.6
	c0,0,0.9,1,1,1.3c0,0.2-0.5,0.9-0.3,1.8c0.1,0.9,1.2,2.1,1.2,2.1s-0.6,0.4-2.4,0.4c-1,0-2.1-0.3-2.9-0.8c0.2,0.5,0.7,0.8,1.2,1
	c0.6,0.2,1.2,0.3,1.8,0.3c0.2,1.2,0.3,2.4,0.3,3.6c0,1.1-0.1,2.2-0.5,3.2c-0.4-0.8-0.9-1.6-1.4-2.4c-0.5-0.7-1.2-1.2-1.9-1.7
	c0,0,1,1.1,1.4,1.7s0.8,1.3,1.1,1.9c-0.6,0.5-1.1,1-1.5,1.6c-0.5,0.8-0.6,2.4-0.6,2.4s-1.3-1-1.6-2.2c-0.2-0.6-0.5-1.7-0.5-1.7
	s0.1,0.9,0.2,1.5c-0.1,1.1-0.3,2.1-0.7,3.1c-0.3,0.7-0.6,1.4-0.9,2c0,0,0,0.2-0.1-0.4c-0.2-1.1-0.7-1.2-1-2.6c-0.2-0.9,0-3.2,0-3.2
	c-0.4,0.6-0.6,1.3-0.6,1.9c0.1,1.7-0.6,2.2-1.4,2.7s-2.5,1.4-2.5,1.4c0.4-0.5,0.7-1,0.9-1.6c0.2-0.7,0.1-3,0.1-3s-0.1,2.4-0.7,3.6
	c-0.8,1.7-3.2,2.8-3.2,2.8c0.4-0.6,0.6-1.3,0.7-2c0.1-0.8-0.3-2.1-0.2-3.7c0-0.8,0.3-1.7,0.8-2.3c-0.3,0.2-0.5,0.4-0.7,0.7
	c-0.4,0.8-0.7,1.6-0.7,2.5c0,1-1.4,1.5-2.3,1.6c-0.9,0-1.8,0-2.6-0.2c0.6-0.4,1-1,1.4-1.6c0.5-0.9,0.9-1.8,1.3-2.7
	c-0.5,0.9-1.1,1.7-1.7,2.5c-1.1,1.5-2,2-3.8,2.1s-2.4-0.7-2.4-0.7c1.6-0.4,2.9-1.4,3.7-2.9c0.6-1.1,0.7-2.7,0.7-2.7s-2.1-0.1-3-0.6
	c-0.8-0.4-1.4-1-1.9-1.7c0,0,0.7,0,1.4-0.1c0.8-0.1,1.7-0.1,3.5-0.2s3.1-0.6,3.3-0.8s0-1,0-1c0.1-0.1,0.2-0.1,0.3-0.2l0.4-0.3
	c0,0.1,0.1,0.3,0.1,0.4c0,0.2,0.1,0.6,0.1,0.6c0.5-0.1,1-0.3,1.4-0.7c0.3-0.3,0.6-0.7,0.8-1.1c0.1,0.1,0.2,0.2,0.4,0.3
	c0.2,0.1,0.8,0.5,0.8,0.5c0.2-0.3,0.4-0.6,0.6-1c0.1-0.4,0.2-0.7,0.2-1.1c0.3,0.1,0.6,0.1,0.9,0c0.3,0,0.7-0.2,1-0.3
	c-0.3-0.2-0.5-0.4-0.7-0.7c-0.1-0.2-0.2-0.3-0.3-0.5c0,0,0.3,0,0.8-0.1c0.4-0.1,0.8-0.3,1.2-0.5c-0.5-0.2-0.9-0.5-1.3-0.8
	c-0.3-0.4-0.1-0.9-0.4-1.7s-1.5-1.3-1.5-1.3c0.4,0.5,0.8,1,1.1,1.5c0.3,0.5,0.2,1.3,0.3,1.6c0.1,0.3,0.9,0.8,0.9,0.8
	c-0.2,0.1-0.5,0.2-0.7,0.2l-1.1,0.1c0,0,0.3,0.5,0.4,0.7s0.5,0.7,0.5,0.7c-0.2,0-0.4,0-0.6,0L97,60.4c0.1,0.3,0.1,0.7,0,1
	c-0.1,0.4-0.3,0.7-0.5,1c-0.2-0.1-0.4-0.2-0.6-0.3c-0.2-0.2-0.7-0.6-0.7-0.6c-0.2,0.5-0.5,0.9-0.8,1.3c-0.3,0.3-0.6,0.5-1,0.7
	c0-0.2,0-0.5,0-0.7c-0.1-0.2-0.1-0.5-0.2-0.7c-0.3,0.3-0.6,0.7-0.9,0.9c-0.9,0.5-2,0.9-3.1,1c-1.5,0.2-1.9-0.5-1.9-0.8
	s0.2-0.3,0.5-0.4s0.3-0.8,0.4-0.9c0.1-0.1,1.6-0.1,2.3-0.2s1.7-1.2,1.7-1.2s-2.6-0.6-3.9,0.1c-1.4,0.7-3.7,2.6-5.6,1.4
	C80.5,60.9,81.3,56.9,81.3,56.9L81.3,56.9z M85.7,58.7c0-0.2,0.7-0.4,0.9-0.4s0.1,1.4,0.1,1.4S85.8,59.2,85.7,58.7L85.7,58.7z
	 M87.2,61.4c0.1,0.2,0.2,0.4,0.3,0.6c0.2,0.2,0.2,0.5,0.1,0.7s-0.4,0.3-0.5,0.1S86.9,62.2,87.2,61.4L87.2,61.4z M71.9,49.9
	c0.4,0.2,0.7,0.7,0.6,0.8s-0.4,0-0.7,0.2s-0.2,0.3-0.4,0.3s0-0.5-0.1-0.8c-0.1-0.2-0.3-0.4-0.5-0.6C71.2,49.7,71.6,49.8,71.9,49.9
	L71.9,49.9z M67.8,51.2c0.9-0.4,0.4,0.7,0.4,1.2c0,0.4-1.7,0.2-1.7,0.2S67.2,51.4,67.8,51.2L67.8,51.2z M65.5,56.5
	c0.1-0.4,0.9-0.2,1,0.6c0,0.4-0.4,0.7-0.3,1.3c0.1,0.7,0.2,1,0.2,1S65,58,65.5,56.5L65.5,56.5z M64.4,62c0.1-1,1-1.9,1-1.9
	c0,0.4,0.1,0.8,0.3,1.2c0.2,0.3,0.4,0.5,0.7,0.6c-0.1,0.1-0.3,0.2-0.4,0.3c-0.3,0.2-0.6,0.4-0.9,0.6C64.8,63,64.3,62.9,64.4,62
	L64.4,62z M63.1,76.4c0,0-0.1-1.1,0.6-1.7s1.3-0.7,1.2-0.2c-0.1,0.4-0.1,0.8,0,1.2c0,0.2-0.5,0.1-0.9,0.1
	C63.6,75.8,63.1,76.4,63.1,76.4L63.1,76.4z M63.8,80.3c0-0.6,0-1.1,0.2-1.6c0.3-0.8,0.6-1.1,0.7-1s0,0.8,0.2,1.3s0.5,0.8,0.5,1
	s-0.3,0-0.8,0C64.4,80,64.1,80.1,63.8,80.3L63.8,80.3z M66.2,84.3c0,0.3,0,0.6,0.1,0.8c0,0-0.8-0.4-1-1.2c-0.1-0.5,0-1.3,0.2-1.3
	s0.2,0.4,0.5,0.6s0.8,0,0.9,0.1S66.3,83.8,66.2,84.3L66.2,84.3z M70.7,85.7c-0.3,0.3-0.6,0.6-0.8,0.9c-0.2-0.3-0.2-0.7-0.3-1.1
	c0-0.5,0.4-1.1,0.6-0.8c0.3,0.3,0.6,0.5,0.9,0.6C71.3,85.3,71.1,85.5,70.7,85.7L70.7,85.7z M77.4,112.6c0.1,0.3,0,0.3-0.4,0.3
	c-0.4,0.1-0.7,0.2-1,0.5c0,0,0-1,0.4-1.3s0.9-0.6,0.9-0.2C77.3,112.1,77.3,112.4,77.4,112.6L77.4,112.6z M77.7,116.7
	c-0.1,0.3-0.1,0.5-0.1,0.8c0,0-1.5-1.7-0.1-2.4c0.2-0.1,0.6,0.6,0.6,0.9C78.2,116.2,77.8,116.3,77.7,116.7L77.7,116.7z M81.1,119.8
	c0,0-1.6-1.1-0.9-2.4c0.1-0.2,1.1,0.4,1.1,0.7c0,0.3-0.4,0.4-0.4,0.8C80.9,119.3,81,119.6,81.1,119.8L81.1,119.8z M84.7,118.2
	c0.1-0.2,0.5,0.2,1.3,0.2c0.4,0,0.2,0.4,0.2,1.1c0,0.4,0.1,0.9,0.1,1.3C86.3,120.8,84.3,119,84.7,118.2L84.7,118.2z M100,103.3
	c-1.1,0.2-2.3,0.3-3.4,0.3c-2,0-4-0.7-4.9-0.3s-0.3,1.1,0.6,2.4s0.6,2.2,0.5,3.6S94,112,94,112s-1.5,0.2-2.3-1.1
	c-0.3-0.5-0.8-1.2-0.8-1.2c0.1,0.4,0.2,0.8,0.4,1.2c0.2,0.5,0.1,1.1,0.1,1.6s0.4,1.5,0.4,1.5c-0.2-0.2-0.5-0.4-0.8-0.5
	c-0.6-0.2-1.1-0.6-1.4-1.1c-0.2-0.4-0.4-0.9-0.4-1.4c-0.1,0.4-0.1,0.8,0,1.2c0.1,0.4,0.3,0.8,0,1.2s0,1.9,0,1.9s-1.3-0.9-1.3-1.5
	c-0.1-0.5-0.2-1-0.4-1.5c-0.1-0.4-0.2-0.9-0.2-1.3c-0.1,0.4-0.2,0.8-0.2,1.2c0.1,0.3,0.2,0.7,0.3,1c0,0.9,0.1,1.8,0.3,2.7
	c0.3,1.9-1.1,2.4-1.7,2.4c-0.7,0.1-1.4-0.2-1.8-0.8c-0.5-0.7,0.4-2.3,0.4-2.3c-0.2,0.1-0.3,0.3-0.4,0.4c-0.2,0.6-0.5,1.2-0.8,1.7
	c-0.5,0.7-1.6,1.2-1.9,0.8c-0.4-0.5-0.9-0.5-1.2-0.9c-0.3-0.5-0.1-1.7-0.1-1.7s-0.2,0.2-0.5,0.4c-0.3,0.2-0.7,0.3-1.1,0.2
	c-0.2-0.1,0-0.5-0.5-1c-0.2-0.2-0.6-0.3-0.2-1.1s2.4-0.6,2.4-0.6c-0.5-0.2-1-0.2-1.4-0.2c-0.7,0.1-1.2-0.2-1.1-1.1
	c0-1.3,1.6-1.6,2.3-1.6c0.8,0,2.6,1.4,2.6,1.4c-0.3-0.3-0.6-0.6-1-0.9c-0.5-0.3-0.7-0.4-0.6-0.5s1.4,0.1,2.2,0c1-0.2,1.8-0.9,2-1.9
	c0.3-1.2,0-3.8,0-4.2c0-0.4,0.8-0.5,0.8-0.5s-1.2,0.1-1.6,0.3c-0.9,0.2-0.8,1.2-0.8,1.2c-0.2-0.2-0.2-0.5-0.2-0.8
	c0.1-0.9,0.7-0.6,1.5-1.2c0.6-0.6,1.1-1.2,1.4-1.9c0,0-0.9,1.3-1.8,1.8s-1.6,0.5-1.9-0.2s0.5-1.7,0.5-1.7c0,0.3,0.2,0.6,0.4,0.8
	c0.6,0.4,0-0.6,0.3-1.5c0.5-1.8,2.2-3.3,3.9-4.2c2.3-1.1,4.2-1.1,5.7-1.6c0.9-0.3,1.9-0.5,2.9-0.6c1.2,0.3,2.5,0.4,3.7,0.5
	c-0.1,0.4-0.2,0.8-0.4,1.1c-0.3-0.3-0.7-0.6-1.1-0.8c0.3,0.4,0.7,0.8,0.9,1.2c-0.4,0.7-0.7,1.3-0.5,2c0,0.1,0,0.1,0,0.1
	c-0.1-0.1-0.2-0.1-0.3-0.2c-0.5-0.4-0.9-0.9-1-1.4c0.1,0.6,0.3,1.2,0.8,1.7c0.2,0.2,0.5,0.4,0.8,0.6c0.3,0.5,0.8,0.9,1.4,1.2
	C100.1,101.3,99.8,102.3,100,103.3L100,103.3z M100.3,94.9c0.4,0.9,0.9,1.7,0.6,3.4c-0.1,0.6-0.2,1.1-0.4,1.6
	c-0.6-0.2-1.1-0.7-1.2-1.3C98.8,97.3,99.9,96.8,100.3,94.9L100.3,94.9z M103.3,118.9c0.1,0.2-0.1,0.2-0.5,0.2s-1,0.5-1,0.5
	c0-0.5,0.2-1,0.4-1.4c0.3-0.4,0.9-0.8,0.8-0.5C103,118.1,103.1,118.6,103.3,118.9L103.3,118.9z M102.9,121.8
	c-0.3,0.3-0.5,0.7-0.7,1.1c0,0-0.3-1-0.1-1.5c0.2-0.5,0.7-0.9,0.8-0.6c0.1,0.3,0.2,0.6,0.4,0.8C103.3,121.6,103.1,121.7,102.9,121.8
	L102.9,121.8z M105.4,124.8c-0.1,0.3-0.1,0.7,0,1c-0.3-0.1-0.7-0.3-0.9-0.5c-0.5-0.5-0.7-0.9-0.6-1.1s0.5-0.2,1-0.1
	C105.6,124.2,105.7,124.3,105.4,124.8L105.4,124.8z M108.8,124.9c-0.3,0.3-0.7,1.3-0.7,1.3s-0.1-0.8-0.2-1.5c0-0.7,0.2-1.4,0.3-1.3
	c0.3,0.4,0.7,0.7,1.2,0.8C109.6,124.3,109.1,124.6,108.8,124.9L108.8,124.9z M129,72.3c-1.2,0.4-3,0.5-3.3,0.5
	c0.6,0,1.1,0.1,1.6,0.4c0.6,0.4,1.5-0.2,1.5-0.2c-0.1,0.5-0.4,0.9-0.8,1.2c-0.7,0.3-1.9-0.5-1.9-0.5c0.5,0.5,1.1,0.9,1.9,1
	c0.7,0.1,1.4-0.1,1.9-0.6c-0.1,0.5-0.3,0.9-0.7,1.2c-0.6,0.4-1.4,0.4-2.4,0c-0.5-0.2-0.9-0.4-1.3-0.8c0,0.2,0.1,0.4,0.3,0.6
	c0.1,0.1,0.3,0.2,0.4,0.3c-0.7,0.2-1.2,0.8-1.3,1.5c0,0.4,0.2,0.7,0.5,0.8c0,0,0.2-0.4,0.5-0.5c0.8-0.2,1,0.1,1.7,0.1
	s0.9-0.9,0.9-0.9s0.1,1.6-0.2,2.4s-1.6,1.1-2.4,1.7c-0.5,0.3-0.8,0.9-0.7,1.5c0.1-0.4,0.3-0.7,0.5-0.9c0.4-0.2,1.1-0.6,1.1-0.6
	c-0.1,0.5-0.1,1,0,1.4c0.1,0.7,0.6,2.3,0.9,5c0.2,1.6-0.6,3.1-1.9,4c0,0,0.8,4.5-3,7.3s-10.6,0.7-11.1,0.4s-0.6,0.4-1.2,1.6
	s-0.7,1.8-0.2,2.3s4.8,2.9,5.2,3.9c0.3,0.7,0.4,1.5,0.3,2.2c0,0,1.2,0.7,1.6,1.3c0.6,1.1-0.2,1.5,0.7,3.2c0,0-1.2,0.2-1.5-0.4
	c-0.5-0.9-2-1.8-2-1.8c0.6,0.6,1.2,1.3,1.6,2.1c0.6,1.4,0.4,1.7,0.8,2.9c-0.9-0.2-1.7-0.6-2.5-1.1c-0.7-0.5-1.2-1.2-1.6-1.9
	c0,0.5,0.2,1,0.5,1.5c0.3,0.4,0.7,0.8,1.1,1c0,0-0.3,1.1-0.1,1.6c0.2,0.5,0.6,0.4,0.8,1.4c0.1,0.5,0.4,0.9,0.8,1.1
	c0,0-1.1,0.3-2.6-1c-0.6-0.6-1.3-1.4-1.3-1.4c0.2,0.5,0.5,1,0.8,1.4c0.5,0.5,0.7,0.7,0.7,0.7l-1.8,1.7l-0.7-1c0,0,1.3,3.6-0.7,4.2
	c-1.5,0.5-2.2-1.1-2.2-1.1c-0.4-0.1-0.9,0-1.3,0.1c-0.7,0.2-0.6,1.4-1.1,1.2c-0.5-0.2-1.2-0.3-1.7-0.3c-0.1-0.2-0.1-0.4-0.2-0.7
	c0-0.5,0.2-0.9,0.5-1.2c-0.5,0-1-0.3-1.2-0.9c-0.6-1.4,1.3-1.8,1.3-1.8c-0.3,0-0.5,0-0.8-0.1c-0.6-0.2-0.7-1.2-0.2-1.9
	c0.6-0.8,3-0.9,3.9-0.2c1.1,0.8,1.2,0.4,1.2-0.1c0.2-2.8,0.7-3.4,0.8-4.5c0.2-0.9-0.4-1.8-1.2-2.1c-0.8-0.3-1.4-0.8-1.9-1.4
	c0,0-0.1-0.4,0.5-0.9c0.3-0.3,0.6-0.4,1-0.5c0,0-1.5,0-2.1,1c-0.4,0.7,0,2.1,0,2.1s-0.8-0.7-1.2-0.1c-0.5,0.5-0.4,1.8-0.4,1.8
	c-0.3-0.3-0.6-0.5-1-0.7c-0.6-0.3-1.2,0.3-1.2,0.3c0.2-0.3,0.2-0.7,0.3-1.1c0-1.2-0.2-2.4-0.7-3.5c-0.6-1-0.5-1.3,0.1-1.3
	c0.6,0.1,1.2,0.3,1.8,0.6c-0.5-0.2-2.8-1.3-3-3.5c-0.1-1.6,0.5-3.2,0.9-4.6s-0.2-2.6-0.6-3.4c-0.3-0.5-0.4-1.1-0.5-1.7l-0.2,1.3
	c-1.2-0.1-2.5-0.3-3.7-0.7c-4.5-1.4-4.2-3-7.5-5c-1.5-0.9-0.6-2.2-0.4-2.6c0.4-0.5,0.9-0.9,1.4-1.3c0,0-1.2,0.7-1.7,1
	c-0.6,0.3-0.2,1.1-0.8,1.5c-0.6,0.3-0.5,1.3-0.5,1.3s-0.2-2,0.1-2.8c0.3-0.6,0.8-1,1.3-1.3c-1,0.3-1.8,1.1-2.1,2.1
	c-0.4,1.2-1.7,2-2.2,2.6s0,2.2,0,2.2s-1.1-0.5-1.2-2.2c-0.1-1.8,1.1-2.3,1.3-3.8c0.1-1-0.5-3.1-0.4-4.1c0-0.5,0.5-0.8,1.4-1.2
	c0.8-0.3,1.6-0.5,2.4-0.6c0,0-1.9-0.1-3.3,0.5c-0.8,0.4-1.4,1.2-1.5,2.1c-0.3-0.6-0.5-1.3-0.6-2c0-0.8,0.6-1.4,0.9-1.7
	s0.2-0.6,0.3-1c0.1-0.4,3.2-1.3,3.2-1.3s-2.8,0.2-5.8,2.2c-1.1,0.8-2.2,1.6-3.1,2.6c-0.1-0.3-0.1-0.6-0.1-1c0.1-0.4,0.2-1.2,0.2-1.2
	s-1.1,2.2-0.6,2.7c0.6,0.6,0.7,1.5,0.4,2.3c-0.1-0.4-0.3-0.7-0.5-1c-0.7-0.8-1.2-0.6-1.7-0.5c-0.5,0-1-0.1-1.4-0.5
	c-0.2,0.9-0.5,1.8-1,2.7c-0.6,1-1.9,0.3-2.5-0.2s-0.8-1.3-0.1-2.4c0.2-0.2,0.2-0.5,0.2-0.8c-0.3-0.1-0.5-0.1-0.8,0
	c-0.5,0.1-0.7,0.5-1.1,1.1c-0.4,0.7-1.8,1.2-2.5,0.6s-0.6-1.9-0.2-2.4c0.3-0.3,0.7-0.4,1.1-0.5c-0.5,0.1-2.1,0-1.9-2.3
	c0.1-1,0.9-1.2,1.9-1.2c-0.8-0.1-2.2-0.4-1.7-1.9s2.9-1.3,3.8-0.9c1.3,0.7,2.2,2.3,2.2,2.3s0.1-0.6,0.6-0.7c0.5,0,1-0.1,1.6-0.3
	c0.5-0.2,1.2-1.1,2.1-1.6s2.4-0.4,3.2-0.7c1.1-0.5,2.2-1.1,3.3-1.7c1.2-0.7,4.2-1.8,4.2-1.8s-0.8,0.2-1.4,0.4
	c-1.1,0.4-2.2,0.8-3.2,1.3c-1.1,0.5-2.8,1.4-2.8,1.4c-0.1-0.6-0.2-1.2-0.2-1.8c0-1,0.1-2.4,0.1-2.4s-0.2,1.7-0.8,2.3
	c-0.3,0.4-0.5,0.8-0.6,1.2c0-0.2,0-0.5-0.1-0.7c-0.1-0.5-0.3-0.3-0.2-0.8c0.1-0.5,0.3-2.2,0.3-2.2s-0.3,1.6-0.7,2.2
	c-0.3,0.5-0.7,1-1.1,1.4c-0.2-0.5-0.4-0.9-0.7-1.3c-0.2-0.3-0.6-0.5-0.9-0.6c0.1-0.3,0.1-0.7,0-1c-0.1-0.5-0.2-1-0.5-1.4
	c0.1,0.5,0.2,1,0.2,1.5c0,1.2-0.4,1.5-0.5,2.3S71.9,73,71.9,73s0-0.8,0-1.7c0-0.8-0.4-1.3-0.7-1.8s0.1-1.2,0.1-1.2
	c-0.3-0.2-0.6-0.2-0.9,0c-0.6,0.2-0.7,1.1-0.7,1.1s-0.8-2.5-0.6-3.6s2.4-3,2.3-2.8s-2.4,2.1-3.2,2.4c-1.4,0.6-2.7,0.3-3.2-0.7
	c-0.7-1.6,1.4-2.2,1.7-2.4c0.3-0.1,0.8,0.5,1.7,0.4c0.5,0,0.9-0.3,1.2-0.7c-0.3,0.2-0.6,0.3-0.9,0.4c-0.2,0-0.5,0-0.7-0.1
	c-0.1-0.2-0.2-0.4-0.1-0.7c0-0.4,0.5-0.5,0.6-1.2s0-2.1,0.3-3c0.2-0.5,0.5-1,0.9-1.3c-0.2,0.1-0.4,0.2-0.6,0.3
	c-0.7,0.2-0.8,0.6-1.4,0.8c-0.2,0.1-0.7-0.1-0.8-0.4s-0.4-0.7-0.8-0.9s0.7-2,1.7-2.1c0.6-0.1,1.2-0.1,1.8,0
	c-0.1-0.2-0.2-0.3-0.4-0.5c-0.4-0.2-0.7-0.7-0.6-1.2c0-0.8,0.5-1.1,1.1-1c1,0.1,1,1.1,1.4,1.6c0.7,1.1,1.1,1.2,1.1,1.2
	c0-0.2,0-0.3-0.1-0.5c-0.2-0.5-0.5-0.4-0.6-1.2c-0.1-0.7,0.2-0.9,0.9-1.1c0.6-0.2,1.1,0.3,1.5,0.7c0.6,0.6,0.3,1.6-0.1,2.5
	c-0.4,1-0.2,2.1,0.1,3.7c0.3,1.5,2.1,3.1,3,3.8s1.7,0.8,3.6,2.7c0.8,0.7,1.8,0.9,3,1.2c0.4,0.7,1.1,1.6,2,2.1
	c0.9,0.4,1.8,0.6,2.8,0.7c-0.1,1.3-0.7,2.5-1.5,3.4c-1.7,1.7-3.3,1.7-3.3,1.7s1.7,2.1,5.7,0.8c0.3-0.1,1.2,0.3,2.6,0.3
	c1-0.1,2-0.4,2.8-1c0,0,0.1,0.4,0.1,1c0.1,1.8-1.3,4-1.3,4s3.6-2.4,4.5-2.9c2.7-1.6,3.7-2,3.8-2.8c0.1,0.6,0.3,1.1,0.7,1.5
	c0.5,0.8,0.5,2.2,0.5,2.2c0.5-0.8,1-1.7,1.4-2.6c0.3-0.8,0.6-1.7,0.7-2.6c0.2,0.3,0.5,0.7,0.8,1c0.2,0.2,0.4,0.4,0.6,0.6
	c-0.5,1.1-1.1,2.2-2,3.1c-2.2,2.4-2.7,4.2-2.2,6.7c0.4,1.9,1.9,2.8,3.8,4.2s4.2,3.4,4.8,4.9c0.6,1.5,0.2,3.9,0.2,3.9
	c0.2-0.4,0.3-0.9,0.4-1.3s0.1-0.8,0.1-1.2c0.6,0.8,1.2,1.6,2,2.3c1.5,1.6,6.6,1.9,9-0.2c1.4-1.2,2-3.1,1.6-4.9c0,0-0.4-0.8-1.7-2.2
	c-1.3-1.3-3-1.5-4.4-1.4s-1.1,1.8-1.5,3.1s-1.2,1.1-2,1.8c-0.8,0.7,0.3,2.4,0.3,2.4c-0.8-0.4-1.5-1-1.9-1.8c-0.5-0.9-0.7-2,0.1-2.8
	c0.3-0.2,0.6-0.2,0.9-0.1c0,0,0-0.3-0.5-0.4c-0.3-0.1-0.6,0.1-0.7,0.4c0,0-0.7,0.6-1.3,0.4c-0.4-0.2-0.8-0.6-1.1-1.1
	c0.3,0.1,0.7,0.1,1.1,0.1c0.6-0.1,0.4-0.5,0.9-0.9c0.5-0.3,1-0.5,1.6-0.7c-0.5-0.1-1-0.1-1.4,0.1c-0.8,0.4-1.6,0.8-2.6,0.2
	c-0.7-0.4-1.9,0.2-3.8-1.8s-1.7-5.8,0.2-8c1.9-2.2,3.1-2.5,3.1-2.5l0.2,0.9c0,0,0.3-1.3,0.9-1.8s1.9,0,1.9,0c-0.2-0.4-0.6-0.7-1-0.9
	c-0.6-0.3-0.8-1.1-0.5-1.7c0.1-0.2,0.2-0.3,0.3-0.4c0.5-0.5,1-1,1.3-1.6c0.3,0.4,0.5,0.8,0.7,1.2c0.2,0.6,0,1.5,0.3,1.9
	c0.2,0.3,0.6,0.5,0.9,0.7c0,0,0.4-0.5,0.4-1.6s-0.8-1.8-1.4-2.8c-0.5-1.1,0.4-2.2,0.4-2.2s0.4,1.3,1.2,1.5c0.5,0.1,0.9,0.5,1.1,1
	c-0.1-0.7-0.4-1.3-0.7-1.9c-0.7-1.2-2.3-2.1-1.6-5.1c0.6-2.5,4.4-3.3,4.4-3.3s-0.8,0.4-0.8,1.6s2.3,2.2,2.5,6.8s-3.5,8.1-4.7,8.7
	c-0.9,0.4-1.8,0.5-2.7,0.3c0.2,0.4,0.6,0.7,1,0.7c0.7,0.1,2.6,0.1,2.6,0.1s-0.8,1-1.2,1.7s-1.1,0.8-1.4,0.3s-1.2-1.1-1.2-1.1
	c0.3,0.5,0.6,1,0.8,1.5c0.2,0.7-0.2,1.6-0.5,2.3c-0.1,0.4,0.1,0.9,0.5,1c0,0-1.7,1.2-2.7,0.2s0-2.1-0.1-3.3
	c-0.2-1.2-1.5-1.5-1.5-1.5c0.3,0.2,0.6,0.5,0.8,0.8c0.1,0.3,0.2,0.6,0.2,1c0,0-0.8-0.8-1.5-0.8s-1.5,0.8-1.4,2.6s0.8,3.1,2.5,3.3
	c1.7,0.2,2.9-0.2,4.2-0.6c0.8-0.3,1.6-0.3,2.5-0.2c0,0,0.2-0.9-0.1-1.3c-0.3-0.4-1.3-0.7-1.3-0.7c0.3-0.5,0.9-0.9,1.5-1
	c1-0.2,2.2,0.7,2.2,0.7c-0.2-0.2-0.4-0.5-0.7-0.7c-0.3-0.2-0.5-0.7-0.4-1.1c0-0.3,0-0.7-0.2-1c0.5,0.2,0.9,0.5,1.3,0.9
	c0.7,0.7,0.6,1.3,0.9,2.3s1.9,2.3,3.2,3.3c0.7,0.6,1.4,1.2,2.1,1.8c0,0,0-0.6,0-0.9v-1.1c0.3-0.1,0.6-0.2,0.8-0.4
	c0.2-0.2,0.4-0.5,0.5-0.8c-0.4,0.3-0.9,0.5-1.4,0.6c-0.8,0.2-2.5-0.9-3.4-2.5s-0.2-3.4-0.2-3.4c0.3,0.6,0.7,1,1.2,1.3
	c0.8,0.4,1.3,0.2,1.3,0.2s-1.9-1.8-1.9-5.1c-0.1-3.4,2.4-6.4,4-7.4c1.6-1.1,3.3-0.5,4.3-0.7s0.7-3.1,0.7-3.1s2.3,1,2.2,3.6
	S130.3,71.8,129,72.3L129,72.3z"/>
<path class="st0" d="M47,14.1c0-1.9,1.2-3.2,3.6-3.7c1.2-0.2,2.5-0.2,3.7-0.2H68v4.1H56.4c-1.4,0-2.2,0.3-2.3,0.9
	c0,0.1-0.1,0.2,0,0.3v2.1h14.1v4.1H54v7.5h-7V14.1z"/>
<path class="st0" d="M98.7,25V14.5c0-1.7,0.6-2.8,1.6-3.4s3.1-0.9,5.9-0.9h4.2l2.3,2.3l2.1-2.3h7.2v5.3h-14.8
	c-0.9,0.1-1.4,0.4-1.6,0.9V23c0,0.7,0.2,1.2,0.6,1.4c0.5,0.2,0.9,0.2,1.4,0.2h14.3v4.7h-16.8c-0.8,0-1.6-0.1-2.4-0.3
	C100.1,28.3,98.7,27,98.7,25z"/>
<path class="st0" d="M92.8,10.4c-1.2-0.2-2.4-0.2-3.7-0.2H77.4c-1.2,0-2.5,0-3.7,0.2c-2.4,0.5-3.6,1.7-3.6,3.7v15.2h7v-7.5h12.5v7.5
	h7V14.1C96.5,12.1,95.3,10.9,92.8,10.4z M89.5,17.6H77v-2.1c0-0.1,0-0.2,0-0.3c0.2-0.6,1-0.9,2.3-0.9h7.8c1.4,0,2.2,0.3,2.3,0.9
	c0,0.1,0.1,0.2,0.1,0.3L89.5,17.6L89.5,17.6z"/>
<path class="st0" d="M147.4,19.7c2.2-0.4,2.1-2.9,2.1-2.9V14c0-1.9-1.2-3.2-3.6-3.7c-1.2-0.2-2.4-0.2-3.7-0.2h-10.7h-7.3v19.1h7
	v-7.5h9.6c0.9-0.1,1.7,0.6,1.8,1.5c0,0.1,0,0.2,0,0.2v5.8h6.9v-7.1C149.5,22.2,149.6,19.7,147.4,19.7z M142.3,17.6h-11.4v-3.4h2.4
	h6.6c1.4,0,2.2,0.3,2.3,0.9c0,0.1,0.1,0.2,0,0.3L142.3,17.6L142.3,17.6z"/>
</svg>
