<?xml version="1.0" encoding="utf-8"?>
<!-- Generator: Adobe Illustrator 25.2.1, SVG Export Plug-In . SVG Version: 6.00 Build 0)  -->
<svg version="1.1" id="Layer_1" xmlns="http://www.w3.org/2000/svg" xmlns:xlink="http://www.w3.org/1999/xlink" x="0px" y="0px"
	 viewBox="0 0 200 200" style="enable-background:new 0 0 200 200;" xml:space="preserve">
<style type="text/css">
	.st0{fill:#1D2D36;}
</style>
<g>
	<path class="st0" d="M70.5,85.3c-3.2,0-4.3,3-4.3,5.9h8.6C74.8,87.9,73.7,85.3,70.5,85.3z"/>
	<path class="st0" d="M0,54.3L19.2,145l1.5-0.8c20.4-10.7,40.8-10.1,54.2-7.6c14.7,2.6,24.6,7.9,24.7,7.9l0.5,0.3l0.5-0.3
		c24.1-10.7,43.9-10.1,56.4-7.7c13.5,2.6,21.4,7.8,21.4,7.9l1.5,1l0.4-1.8L200,54.3H0z M52.9,109.6H24.6V79.9h11.2V102h17v7.6H52.9z
		 M71,110.6c-11.5,0-17.6-6-17.6-15.9s6.3-15.9,17-15.9c11.3,0,17,7.2,17,15.9c0,0.7-0.1,1.3-0.1,1.8H65.8c0,4.2,2.4,6.8,6.1,6.8
		c3.2,0,5.7-0.9,6.2-3.5h9.4C86.3,106.6,81.5,110.6,71,110.6z M108.2,109.6H99l-14.8-30h12.9l7.9,17.3h0.2l7.9-17.3h9.3L108.2,109.6
		z M135.4,109.6h-11.2v-30h11.2V109.6z M145.8,82l-3.9,4.7h-1.6l1.8-5.1h-3.6v-6.8h7.3V82z M160.5,110.2c-10.3,0-14.1-4.5-14.1-10
		V100h9.4c0,2.6,2,3.9,4.9,3.9c2.5,0,3.8-0.8,3.8-2.5c0-4.3-17.9-0.2-17.9-12.3c0-6.5,6-10.3,15.5-10.3c8.4,0,13.5,4.2,13.5,9.1H167
		c0-1.4-1.8-2.9-4.9-2.9c-3.1,0-4.3,1.1-4.3,2.1c0,4.7,18.8,0.1,18.8,12.4C176.6,105.6,172.1,110.2,160.5,110.2z"/>
</g>
</svg>
