<?xml version="1.0" encoding="utf-8"?>
<!-- Generator: Adobe Illustrator 25.2.1, SVG Export Plug-In . SVG Version: 6.00 Build 0)  -->
<svg version="1.1" id="Layer_1" xmlns="http://www.w3.org/2000/svg" xmlns:xlink="http://www.w3.org/1999/xlink" x="0px" y="0px"
	 viewBox="0 0 200 200" style="enable-background:new 0 0 200 200;" xml:space="preserve">
<style type="text/css">
	.st0{fill:#1D2D36;}
</style>
<g>
	<path class="st0" d="M100.3,93.3c2.4-0.9,0.9-4.6-1.5-3.6C96.5,90.7,98,94.2,100.3,93.3z"/>
	<rect x="97.9" y="95" class="st0" width="3.7" height="18.6"/>
	<path class="st0" d="M84.5,93.3c-1.1,0-2.2,0.1-3.2,0.5c-1.4,0.5-2.4,1.4-3.5,2.5V85.1h-3.2v15.6c0,2.8-0.5,5.6,1,8.2
		c3.9,7,14.8,6.8,18-0.7C96.4,101.4,92.2,93.3,84.5,93.3z M85.5,110.7c-3.3,0.7-6.4-2-7.2-5.1c-1-3.8,1-8.2,5-9s7.2,2.6,7.6,6.3
		C91.2,106.4,89,110,85.5,110.7z"/>
	<path class="st0" d="M65.9,97h4.5v-3.2h-4.5v-4.2h-3.2V104c0,2.4-0.3,5.1,1.2,7.2c1.6,2.2,4.2,2.5,6.7,2.5v-3.2
		C64.2,110.1,65.9,101.5,65.9,97z"/>
	<path class="st0" d="M52.8,103.4c2.5-2.9,4.8-6.3,6.7-9.7c-1.2,0-3-0.3-4.1,0.2c-0.8,0.3-1.3,1.4-1.7,2.1c-1,1.5-1.9,3.1-3.1,4.5
		c-0.6-1.7-1.9-3.2-2.8-4.7c-0.4-0.7-0.9-1.5-1.7-1.8c-1.1-0.5-2.8-0.2-3.9-0.2c1,2.5,3,4.7,4.5,6.9c0.5,0.7,1.5,1.8,1.5,2.6
		c0,0.9-1.2,2.1-1.7,2.8c-1.6,2.4-3.8,4.8-4.9,7.4c1.2,0,3.1,0.4,4.2-0.2c0.8-0.5,1.2-1.5,1.7-2.2c1-1.6,2.4-3.2,3-4.9
		c1.3,1.6,2.4,3.5,3.6,5.2c0.5,0.7,0.9,1.7,1.7,2.1c1,0.5,2.8,0.2,3.9,0.2c-0.4-1.6-1.6-2.9-2.5-4.2C55.8,107.4,54.6,105,52.8,103.4
		z"/>
	<path class="st0" d="M117,101.2c0.2-0.9,1.2-1.6,1.9-2.2c1.7-1.7,3.8-3.2,5.2-5.2c-1.6,0-3.7-0.4-5.2,0.2c-1.3,0.5-2.3,1.8-3.2,2.8
		l-5.5,5.4V85.1h-3.5v28.5h3.5c0-1.8-0.5-4.3,0.2-6c0.5-1.5,2.5-3.1,3.8-3.7c1,2.5,3,4.7,4.5,6.9c0.5,0.8,1.1,2.2,2.1,2.6
		c1.1,0.5,2.8,0.2,3.9,0.2c-1-3-3.6-6.1-5.5-8.7C118.5,104,116.8,102.3,117,101.2z"/>
	<path class="st0" d="M3.2,95.5v-1.7H0v19.8h3.5v-9.4c0-1.5-0.3-3.3,0.4-4.7c1.6-3.4,6.7-4.1,8.5-0.5c0.9,1.8,0.7,3.8,0.7,5.7v8.9
		h3.5v-8.9c0-2.4,0.1-4.9-0.9-7.2C13.6,92.3,6.9,92.1,3.2,95.5z"/>
	<path class="st0" d="M188.4,92.2c1.8-2.4-1.6-5.8-4.1-5.6c-1.1,0.1-1.8,1.2-1.2,2.1c0.4,0.8,1.4,1.2,2.2,1.5v0.5
		c-2.7,0.9-5,2.1-6.9,4.2c-1.2,1.4-1.9,3.2-3,4.7c-1.6,2.2-3.8,3.6-6.2,4.5c0.6,3.6-2.7,7.7-6.4,7.6c-2,0-3.9-1.3-5.1-2.9
		c-2-2.6-1.1-4.8-0.6-7.7c-1-0.7-1.8-1.7-3-2.2c-1.2,3.1-1.9,6.5-0.7,9.7c2,5.5,8.7,7.8,13.8,5.4c1.7-0.8,3.2-2.1,4.1-3.6
		c0.6-1,0.8-2.3,1.5-3.1c1.2-1.4,3.2-2.1,4.5-3.6c1.7-2,2.3-4.7,4-6.7C183.2,94.8,186.7,94.5,188.4,92.2z"/>
	<path class="st0" d="M154,94.5c0.8,1.3,0.6,2.7,1.7,3.9c3.7,4.1,11.7,5.7,16.5,3c-0.6-1.4-1.8-2.5-2.4-4c-0.7-1.8-0.7-3.8-2-5.4
		c-2.5-3.2-6.9-4.4-10.8-4.5c-1.8,0-3.5,0.1-5.2,0.3c-0.5,0.1-1.6,0.1-1.8,0.8c-0.3,0.9,1.2,1.5,1.8,2c0.8,0.7,0.6,1.5,1,2.4
		C153.1,93.6,153.6,94,154,94.5z"/>
	<g>
		<path class="st0" d="M36.7,107.3c-1.2,0.5-1.9,1.9-3,2.6c-2.7,1.7-7,0.7-8.4-2.2c2.3-0.5,4.5-1.7,6.7-2.7c1.8-0.8,3.6-1.5,5.4-2.3
			c0.7-0.3,1.8-0.5,2.2-1.2c0.5-0.7-0.1-1.9-0.3-2.6c-1-2.3-3.1-4.2-5.3-5.1c-8.7-3.4-16.7,6.4-12.7,14.5c1.1,2.1,2.8,3.9,5,4.8
			c5.1,2.1,12.7,0.1,13.6-6.1C38.9,107.1,37.6,106.9,36.7,107.3z M26.8,97.7c2.7-1.9,7.7-1.3,8.7,2.3c-3.9,1.3-7.6,3.8-11.6,4.7
			C23.8,101.9,24.3,99.4,26.8,97.7z"/>
	</g>
	<g>
		<path class="st0" d="M192.7,94.9c-1.1-0.3-2.3-0.5-3.5-0.3c-2.9,0.4-5.5,1.5-7.3,3.9c-3.8,5-2.2,12.8,3.6,15.5
			c2,0.9,4.3,1,6.4,0.8c1.1-0.1,2.2-0.6,3.2-1.2C202.7,109.3,201.1,97.1,192.7,94.9z M196.4,106.4c-0.5,2.7-2.9,4.9-5.6,5.3
			c-4.8,0.8-7.8-4.4-7.1-8.6c0.5-2.7,2.9-4.9,5.6-5.3C194.1,97,197.1,102.2,196.4,106.4z"/>
	</g>
	<g>
		<path class="st0" d="M141.8,107.3c-1.2,0.5-1.9,1.9-3,2.6c-2.7,1.7-7,0.7-8.4-2.2c2.3-0.5,4.5-1.7,6.7-2.7
			c1.8-0.8,3.6-1.5,5.5-2.3c0.7-0.3,1.8-0.5,2.2-1.2c0.6-0.8-0.1-2.1-0.4-2.8c-1.1-2.2-3.1-4.1-5.5-4.9c-9.1-3.3-16.7,7.4-12,15.3
			c3.3,5.6,11.7,6.8,16.2,2c1-1.1,1.8-2.4,2-4C144,107.1,142.7,106.9,141.8,107.3z M130.4,99c2.9-3.6,7.8-2.8,10.3,0.7
			c-2.2,1.3-4.8,2.1-7.2,3.1c-1.6,0.6-3.1,1.4-4.7,1.8C128.8,102.6,129,100.6,130.4,99z"/>
	</g>
</g>
</svg>
