<?xml version="1.0" encoding="utf-8"?>
<!-- Generator: Adobe Illustrator 25.2.1, SVG Export Plug-In . SVG Version: 6.00 Build 0)  -->
<svg version="1.1" id="Layer_1" xmlns="http://www.w3.org/2000/svg" xmlns:xlink="http://www.w3.org/1999/xlink" x="0px" y="0px"
	 viewBox="0 0 200 200" style="enable-background:new 0 0 200 200;" xml:space="preserve">
<style type="text/css">
	.st0{fill:none;}
	.st1{fill:#1D2D36;}
</style>
<line class="st0" x1="-311.2" y1="241" x2="590" y2="241"/>
<line class="st0" x1="-311.2" y1="241" x2="590" y2="241"/>
<line class="st0" x1="-320.3" y1="250.1" x2="599.1" y2="250.1"/>
<polyline class="st0" points="5,194.5 195,194.5 195,5.5 5,5.5 "/>
<g>
	<path class="st1" d="M97.6,5C58.4,5,26.5,36.8,26.5,76.1s31.8,71.1,71.1,71.1s71.1-31.8,71.1-71.1C168.8,36.8,136.9,5,97.6,5z
		 M97.6,145.4c-38.3,0-69.3-31-69.3-69.3s31-69.3,69.3-69.3s69.3,31,69.3,69.3C167,114.4,135.9,145.4,97.6,145.4z"/>
</g>
<g>
	<path class="st1" d="M97.6,11.7c-35.6,0-64.5,28.9-64.5,64.5s28.9,64.4,64.5,64.4s64.5-28.8,64.5-64.4
		C162.1,40.5,133.2,11.7,97.6,11.7z M97.6,134.8c-32.5,0-58.7-26.3-58.7-58.7s26.3-58.7,58.7-58.7s58.7,26.3,58.7,58.7
		S130.1,134.8,97.6,134.8z"/>
</g>
<g>
	<path class="st1" d="M142.3,104.2c-4.4-4.1-9.9-6.9-16-7.8c-0.9-0.1-1.6,0.5-1.6,1.4v2.2c0,0.7-0.5,1.4-1.2,1.4c-0.5,0-1,0-1.4,0
		c-1.7,0-2-2.1-1.7-3.3c3.6-12.8,4.5-20.6,4.4-26.3c0-6-0.2-12-2.9-20c-2.6-7.7-5-15.1-17.7-26.6c-0.9-0.8-1.7-1.2-2.9-1.2
		c-1.2-0.1-2.3-0.1-3.5-0.1c-5.2,0-10.3,0.8-15.1,2.2c-1.8,0.5-1.5,1.8-0.5,2.6c4.8,4.1,11.2,10.2,15.7,17.9c-2.8,0.3-5-1.3-6.8-3
		c-6-5.7-12.2-9.7-17.1-12.5c-0.9-0.5-1.7-0.7-2.6-0.2c-5.3,3.1-9,6-13.3,11.1c-0.7,0.8-0.3,1.5,0.5,1.9c4.7,2.5,12.1,7.2,18.9,13.4
		c-1.4,1.2-3.6,0.8-6.8-0.9c-6.1-3.2-12-5-16.5-6.2c-1-0.2-2,0-2.5,0.9C48.9,56,46.9,62,46,68c-0.2,1.2,0.6,2.2,1.8,2.4
		c10.4,1.8,29,6.7,32.1,28.2c0.3,1.9-1.4,3.5-3.7,2.5c-3.1-1.5-6.3-2.9-9.4-4.4c-0.3-0.1-0.7-0.3-1.1-0.3H51c-2.1,0-3,2-1.6,3.6
		c3.5,4.1,6.8,8.5,9.6,13.2c0.2,0.4,0.5,0.6,1,0.6h6.5c0.4,0,0.8-0.1,1.2-0.3c2-1.2,4.1-2.4,6.1-3.6c0.4-0.2,0.8-0.2,1.2-0.2h48.6
		c0.6,0,1.2,0.4,1.2,1.1v2.4c0,0.9,0.8,1.5,1.6,1.4c6-1,11.6-3.7,16-7.8C143,106,143,104.9,142.3,104.2z M107.1,95.3
		c-3.6,0-6.5-2.9-6.5-6.6c0-3.6,2.9-6.6,6.5-6.6s6.6,2.9,6.6,6.6C113.7,92.3,110.8,95.3,107.1,95.3z"/>
</g>
<path class="st1" d="M18.5,194.5c3.5,0.2,9.2,0.3,12.5,0.3c14.4,0,16.1,0,16.1-7.8c0-6.2-1.8-6.6-9.4-6.9l-8.8-0.3
	c-4-0.1-4.1-0.6-4.1-2.4c0-1.9,0.5-1.9,10.2-1.9c1.8,0,7.7,0.1,10.8,0.2c0.3,0,0.5-0.2,0.5-0.5v-4c0-0.3-0.2-0.5-0.5-0.5
	c-3.1-0.2-8.1-0.3-11.7-0.3c-14.1,0-16.4,0.3-16.4,7.5c0,6.2,1.4,7.1,10.4,7.3l8.1,0.3c3.8,0.1,3.9,0.6,3.9,2c0,1.9-0.2,2-9.1,2
	c-4.2,0-8.5-0.2-12.4-0.3c-0.3,0-0.5,0.1-0.5,0.5v4.2C18.1,194.3,18.2,194.5,18.5,194.5 M170.5,185.8H160l4.8-9.6h0.9L170.5,185.8z
	 M139.7,182.5v0.3c0,6.1-0.5,6.3-8.4,6.3h-6.5v-12.9h6.5C139.2,176.2,139.7,176.4,139.7,182.5 M105.5,182.5v0.3c0,6.6-0.3,6.8-8,6.8
	s-8-0.1-8-6.8v-0.3c0-6.6,0.3-6.8,8-6.8C105.3,175.7,105.5,175.8,105.5,182.5 M182.2,193.9l-11.4-22.8c-0.1-0.3-0.3-0.4-0.6-0.4
	h-10.1c-0.3,0-0.5,0.1-0.6,0.4l-11.4,22.8c-0.2,0.4,0,0.6,0.4,0.6h6.6c0.3,0,0.5-0.1,0.6-0.4l1.7-3.4H173l1.7,3.4
	c0.1,0.3,0.3,0.4,0.6,0.4h6.6C182.2,194.5,182.4,194.3,182.2,193.9 M131.3,170.8h-13.1c-0.3,0-0.5,0.2-0.5,0.5V194
	c0,0.3,0.2,0.5,0.5,0.5h13.1c14.1,0,15.9-0.7,15.9-11.8v-0.2C147.2,171.5,145.4,170.8,131.3,170.8 M80.4,193.9l-13.1-12.8l12.3-9.7
	c0.4-0.3,0.2-0.6-0.2-0.6h-8c-0.2,0-0.4,0.1-0.6,0.2l-12.6,10.1v-9.8c0-0.3-0.2-0.5-0.5-0.5h-6.1c-0.3,0-0.5,0.2-0.5,0.5V194
	c0,0.3,0.2,0.5,0.5,0.5h6.1c0.3,0,0.5-0.2,0.5-0.5v-5.7l3.7-2.9l9,8.9c0.2,0.2,0.4,0.3,0.6,0.3h8.6
	C80.6,194.5,80.8,194.2,80.4,193.9 M81.8,182.5v0.3c0,11.5,1.9,12.2,15.7,12.2s15.7-0.7,15.7-12.2v-0.3c0-11.5-1.9-12.2-15.7-12.2
	S81.8,171,81.8,182.5 M26.3,165.3l3,3.4c0.2,0.2,0.3,0.3,0.6,0.3h6.3c0.3,0,0.4-0.1,0.6-0.3l3-3.4c0.3-0.3,0.2-0.6-0.3-0.6h-4.2
	c-0.3,0-0.4,0.1-0.6,0.3l-1.3,1.9h-0.7l-1.3-1.8c-0.2-0.2-0.3-0.3-0.6-0.3h-4.2C26.2,164.7,26.1,165,26.3,165.3"/>
</svg>
