<?xml version="1.0" encoding="utf-8"?>
<!-- Generator: Adobe Illustrator 25.2.1, SVG Export Plug-In . SVG Version: 6.00 Build 0)  -->
<svg version="1.1" id="Layer_1" xmlns="http://www.w3.org/2000/svg" xmlns:xlink="http://www.w3.org/1999/xlink" x="0px" y="0px"
	 viewBox="0 0 256 256" style="enable-background:new 0 0 256 256;" xml:space="preserve">
<style type="text/css">
	.st0{fill:#1D2D36;}
</style>
<path class="st0" d="M226.9,199.7c0.3-0.5,0.3-0.8,0.5-1.3c0-0.3,0-0.3,0-0.5V5.1c0-2.8-2.3-5.1-5.4-5.1h-190C29.3,0,27,2.3,27,5.1
	v245.5c0,2.8,2.3,5.4,5.1,5.4h137.5c0.8,0,1.5-0.3,2-0.5c0.8-0.3,1.3-0.8,1.8-1.3l52.5-52.5l0,0c0.5-0.5,0.8-1,1-1.5
	C226.9,199.9,226.9,199.9,226.9,199.7z M164.5,197.9v47.4H37.2V10.5H217v182.3h-47.4C166.8,192.8,164.5,195.1,164.5,197.9z
	 M175,237.8v-34.6h34.6L175,237.8z M181.4,145.2c10.8-0.5,14.6-5.9,14.6-10.5c-0.3-6.9-8.2-14.1-25.9-14.1c-2.8,0-5.9,0.3-9.2,0.8
	c-2,0.3-4.6,0.5-7.2,1c-9-8.2-17.9-20-24.8-33.5c1.5-7.7,2.3-15.1,2.3-22.3c0-25.9-9-28.7-13.1-28.7c-6.1,0-10.8,6.7-10.8,15.6
	c0,9.5,3.8,22.8,10.5,36.6c-4.4,19.2-13.1,36.1-20,47.1c-26.1,10.2-39.4,22-39.4,34.8c0,7.4,4.6,10,8.4,10
	c10.2,0,26.4-17.9,38.1-36.1c13.6-5.1,30-9.5,45.8-12.5c9.7,7.9,19.7,11.8,29.4,11.8H181.4z M69,170.8c1-5.1,6.9-10.8,16.9-16.4
	C78.5,163.6,72.3,169,69,170.8z M118.4,49.9c1,2.3,2.3,6.9,2.3,16.6c0,0.8,0,1.5,0,2.3c-1.8-5.9-2.8-11.3-2.8-15.4
	C117.9,52,118.1,50.7,118.4,49.9z M140.4,124.9c-9,1.8-18.2,4.1-26.6,6.9l0.5-0.8l-0.8,0.3c4.1-7.7,8.2-16.9,11.3-27.1l0.5,1l0.3-1
	c4.9,7.7,10,14.6,15.6,20.2l-1,0.3L140.4,124.9z M170.1,131.1c7.9,0,12.3,1.8,14.3,3.1c-0.8,0.3-1.8,0.5-3.3,0.5h-0.8
	c-4.4,0-9-1.3-13.6-3.3C167.8,131.1,169.1,131.1,170.1,131.1z"/>
</svg>
