<svg version="1" xmlns="http://www.w3.org/2000/svg" width="524" height="524" viewBox="0 0 393.000000 393.000000"><path d="M179.8.5c-.1.1-2.8.5-5.8.9-9.8 1.1-13.3 1.8-21.5 3.7-4.4 1.1-9 2.2-10.2 2.5-4.4.9-19.2 6.4-27.7 10.4-8.5 3.9-26.9 14.3-29.2 16.4-.6.6-2.2 1.8-3.4 2.6-17.9 12-39.4 34.9-52.2 55.6C20 108.5 9.7 132 7.4 143.5c-.1.5-.8 3.2-1.7 6-.8 2.7-1.5 5.2-1.5 5.5 0 .5-.9 5.7-1.7 10.5-1.5 8.4-1.9 15.6-1.9 32 .1 9.9.4 19.7.7 21.9.4 2.1.9 5.7 1.2 8 .3 2.2.9 5.4 1.3 7.1.3 1.6.7 3.4.8 4 .1.5.3 1.2.4 1.5.1.3.4 1.8.6 3.5.3 1.6 2.3 8.4 4.5 15 12.2 36.3 35.8 69.9 64.9 92.3 3 2.3 6 4.6 6.5 5 13.4 10.6 39.6 23.4 59.5 29.1 21.2 6 32.6 7.6 55.5 7.5 21.8 0 31.6-1.1 48-5.5 4.4-1.1 8.7-2.2 9.5-2.4.8-.2 4.2-1.3 7.5-2.5 9.4-3.6 10-3.8 10.5-3.8.4-.1 17.7-8.9 25.5-13 1.7-.9 3.9-2.4 4.9-3.4 1.1-1 2.3-1.8 2.7-1.8 1.1 0 12.4-8.5 19.5-14.6 9.3-8 24.4-23.8 26.8-28.2.5-1 1.6-2.4 2.5-3.2 3.4-3.4 13.7-20.2 18.6-30.5 7.5-15.4 13.9-33.6 16.1-45.5.2-1.4.9-4.6 1.4-7.1 3.5-17.5 3.5-50.2-.1-68.9-2.9-14.6-7.5-30.6-11.5-39.8-3.9-9-13.8-28.2-14.6-28.2-.4 0-.8-.5-.8-1.1 0-.5-1.9-3.7-4.2-7.1-2.4-3.3-4.7-6.7-5.3-7.6-.5-.8-1.7-2.3-2.5-3.3-.8-.9-3.3-3.8-5.5-6.4-8.9-10.5-26-26.3-32.4-29.9-.9-.5-2-1.5-2.4-2.3-.4-.7-1.2-1.3-1.6-1.3-.5 0-3.5-1.8-6.7-3.9-3.3-2.1-8.6-5.3-11.9-7.1-3.3-1.7-6.7-3.5-7.5-4-4.3-2.4-19.9-8.7-26-10.5-15.8-4.6-22.2-6-35.5-8.1C218 .9 180.3 0 179.8.5z"/></svg>