<?xml version="1.0" encoding="utf-8"?>
<!-- Generator: Adobe Illustrator 25.2.1, SVG Export Plug-In . SVG Version: 6.00 Build 0)  -->
<svg version="1.1" id="Layer_1" xmlns="http://www.w3.org/2000/svg" xmlns:xlink="http://www.w3.org/1999/xlink" x="0px" y="0px"
	 viewBox="0 0 200 200" style="enable-background:new 0 0 200 200;" xml:space="preserve">
<style type="text/css">
	.st0{fill:#1D2D36;}
</style>
<g>
	<path class="st0" d="M18.4,117.7V107v-8.5V68.2V57.5v-6.2H6.2c-3.4,0-6.2,2.8-6.2,6.2v10.7v8.5V107v10.7v6.2h12.2
		C15.7,123.8,18.4,121.1,18.4,117.7"/>
	<path class="st0" d="M200,123.8l-29.9-69c-0.9-2-2.9-3.4-5.2-3.5l0,0h-0.4l0,0l0,0h-8.8l0,0l0,0h-0.4c-2.3,0.2-4.2,1.6-5.2,3.5
		l-29.8,69l15.5,0c2.6,0,4.8-1.6,5.7-3.9l0,0l3.3-8.4h30.6l3.3,8.4l0,0c0.9,2.3,3.1,3.9,5.7,3.9L200,123.8L200,123.8z M169.4,96.1
		h-18.5l9.2-23.4L169.4,96.1L169.4,96.1z"/>
	<path class="st0" d="M113.1,123.8v-6.2V107v-8.5V76.7v-8.5V57.5v-6.2h-6.2h-8.6h-3.7l0,0h-0.2l-7.3,8.1L74,74L55.6,53.6l-2.1-2.3
		h-0.2l0,0h-3.7H41h-6.2v6.2v10.7v8.5v21.8v8.5v10.7v6.2h12.2c3.4,0,6.2-2.8,6.2-6.2V107v-8.5V78.6l3.2,3.6l5.7,6.3l7.2,7.9
		c1.2,1.3,2.7,2,4.3,2c0.1,0,0.2,0,0.3,0c0.1,0,0.2,0,0.3,0c1.6-0.1,3.2-0.8,4.3-2l7.2-7.9l5.7-6.3l3.3-3.6v19.9v8.5v10.7
		c0,3.4,2.8,6.2,6.2,6.2H113.1L113.1,123.8z"/>
	<path class="st0" d="M4.3,139H2v4.1h2.3c1.5,0,2.5-0.8,2.5-2C6.8,139.7,5.8,139,4.3,139L4.3,139z M4.2,144.9H2v3.6H0v-11.3h4.5
		c2.6,0,4.3,1.5,4.3,3.8C8.8,143.5,6.7,144.9,4.2,144.9L4.2,144.9z"/>
	<path class="st0" d="M25.4,139h-2.9v3.8h2.9c1.4,0,2.3-0.8,2.3-1.9C27.8,139.6,26.9,139,25.4,139L25.4,139z M27.8,148.5l-2.8-3.9
		h-2.5v3.9h-2v-11.3h5.1c2.6,0,4.2,1.4,4.2,3.6c0,1.9-1.1,3-2.7,3.4l3.1,4.3H27.8L27.8,148.5z"/>
	<path class="st0" d="M47.4,138.8c-2.2,0-3.8,1.8-3.8,4s1.6,4.1,3.9,4.1c2.2,0,3.8-1.8,3.8-4S49.7,138.8,47.4,138.8L47.4,138.8z
		 M47.4,148.7c-3.5,0-5.9-2.6-5.9-5.9s2.5-5.9,6-5.9c3.5,0,5.9,2.6,5.9,5.9S50.9,148.7,47.4,148.7L47.4,148.7z"/>
	<path class="st0" d="M69.7,139h-2.2v7.7h2.2c2.4,0,3.9-1.6,3.9-3.8C73.6,140.6,72.1,139,69.7,139L69.7,139z M69.7,148.5h-4.2v-11.3
		h4.2c3.6,0,6,2.4,6,5.6C75.7,146,73.3,148.5,69.7,148.5L69.7,148.5z"/>
	<path class="st0" d="M97.4,143.6c0,3.4-1.9,5.1-4.9,5.1c-2.9,0-4.8-1.7-4.8-5v-6.5h2v6.4c0,2.1,1.1,3.2,2.9,3.2
		c1.8,0,2.8-1.1,2.8-3.2v-6.5h2L97.4,143.6L97.4,143.6L97.4,143.6z"/>
	<path class="st0" d="M115.1,148.7c-3.3,0-5.8-2.6-5.8-5.9c0-3.2,2.4-5.9,5.8-5.9c2.1,0,3.3,0.7,4.4,1.8l-1.3,1.5
		c-0.9-0.8-1.9-1.4-3.2-1.4c-2.2,0-3.7,1.8-3.7,4s1.6,4.1,3.7,4.1c1.4,0,2.3-0.6,3.3-1.5l1.3,1.3
		C118.6,147.9,117.2,148.7,115.1,148.7L115.1,148.7z"/>
	<polygon class="st0" points="136.3,148.5 134.3,148.5 134.3,139 130.7,139 130.7,137.2 139.9,137.2 139.9,139 136.3,139 	"/>
	<polygon class="st0" points="153.9,137.2 153.9,148.5 151.9,148.5 151.9,137.2 	"/>
	<path class="st0" d="M172,138.8c-2.2,0-3.8,1.8-3.8,4s1.6,4.1,3.9,4.1c2.2,0,3.8-1.8,3.8-4S174.3,138.8,172,138.8L172,138.8z
		 M172,148.7c-3.5,0-5.9-2.6-5.9-5.9s2.5-5.9,5.9-5.9c3.5,0,5.9,2.6,5.9,5.9S175.5,148.7,172,148.7L172,148.7z"/>
	<polygon class="st0" points="198,137.2 200,137.2 200,148.5 198.3,148.5 192.1,140.4 192.1,148.5 190.1,148.5 190.1,137.2 
		192,137.2 198,145 	"/>
</g>
</svg>
