<?xml version="1.0" encoding="utf-8"?>
<!-- Generator: Adobe Illustrator 25.2.1, SVG Export Plug-In . SVG Version: 6.00 Build 0)  -->
<svg version="1.1" id="Layer_1" xmlns="http://www.w3.org/2000/svg" xmlns:xlink="http://www.w3.org/1999/xlink" x="0px" y="0px"
	 viewBox="0 0 200 200" style="enable-background:new 0 0 200 200;" xml:space="preserve">
<style type="text/css">
	.st0{fill:#1D2D36;}
</style>
<g>
	<g>
		<path class="st0" d="M114.1,102.7h5.3v5.2h0.1c0.3-2.1,2.7-5.7,6.2-5.7c0.6,0,1.2,0,1.8,0.2v6c-0.5-0.3-1.6-0.5-2.7-0.5
			c-4.8,0-4.8,6-4.8,9.3v8.4h-5.9L114.1,102.7L114.1,102.7z"/>
		<path class="st0" d="M149.4,124.2c-2.2,1.2-4.6,1.8-7.8,1.8c-7.5,0-11.9-4.3-11.9-11.8c0-6.6,3.5-12,10.6-12
			c8.4,0,10.8,5.8,10.8,13.8h-15.8c0.3,3.7,2.8,5.8,6.5,5.8c2.9,0,5.4-1.1,7.6-2.3L149.4,124.2L149.4,124.2z M145.4,111.9
			c-0.2-2.9-1.5-5.3-4.8-5.3s-5,2.3-5.3,5.3H145.4z"/>
		<path class="st0" d="M154.6,102.7h5.6v3.1h0.1c1.9-2.6,4.4-3.6,7.5-3.6c5.4,0,7.7,3.8,7.7,8.9v14.4h-5.9v-12.2
			c0-2.8,0-6.6-3.9-6.6c-4.3,0-5.2,4.7-5.2,7.6v11.2h-5.9V102.7L154.6,102.7z"/>
		<path class="st0" d="M181.3,103.9c2.3-1.1,5.4-1.7,7.9-1.7c6.9,0,9.8,2.9,9.8,9.6v2.9c0,2.3,0,4,0.1,5.7c0,1.7,0.1,3.3,0.3,5.1
			h-5.2c-0.2-1.2-0.2-2.7-0.3-3.4h-0.1c-1.4,2.5-4.3,3.9-7,3.9c-4,0-8-2.4-8-6.8c0-3.4,1.6-5.4,3.9-6.5c2.3-1.1,5.2-1.3,7.6-1.3h3.3
			c0-3.7-1.6-4.9-5.1-4.9c-2.5,0-5,1-7,2.5L181.3,103.9z M187.5,121.7c1.8,0,3.2-0.8,4.2-2c1-1.3,1.2-2.9,1.2-4.7h-2.6
			c-2.7,0-6.6,0.4-6.6,3.9C183.8,120.9,185.4,121.7,187.5,121.7z"/>
		<path class="st0" d="M92.4,103.9c2.3-1.1,5.4-1.7,7.9-1.7c6.9,0,9.8,2.9,9.8,9.6v2.9c0,2.3,0,4,0.1,5.7c0,1.7,0.1,3.3,0.3,5.1
			h-5.2c-0.2-1.2-0.2-2.7-0.3-3.4h-0.1c-1.4,2.5-4.3,3.9-7,3.9c-4,0-8-2.4-8-6.8c0-3.4,1.6-5.4,3.9-6.5c2.3-1.1,5.2-1.3,7.7-1.3h3.3
			c0-3.7-1.6-4.9-5.1-4.9c-2.5,0-5,1-7,2.5L92.4,103.9z M98.6,121.7c1.8,0,3.2-0.8,4.2-2c1-1.3,1.2-2.9,1.2-4.7h-2.6
			c-2.7,0-6.6,0.4-6.6,3.9C94.8,120.9,96.5,121.7,98.6,121.7z"/>
	</g>
	<path class="st0" d="M12.5,93.2c0-11.3,6.4-22.4,19.1-22.4C44.5,70.8,51,81.6,51,93.2c0,11.5-5.8,22.4-19.4,22.4
		C18.2,115.6,12.5,104.4,12.5,93.2L12.5,93.2z M0.6,93.2c0,19.3,11.3,32.8,31,32.8c19.9,0,31.3-13.5,31.3-32.8
		c0-18.7-11.6-32.7-31.3-32.7C12,60.5,0.6,74.4,0.6,93.2L0.6,93.2z"/>
	<path class="st0" d="M61.9,139.5v-4.6c2.4-2.2,11.5-9.9,11.5-14.7c0-2.5-2.2-3.7-4.3-3.7c-2.4,0-4.6,1-6.3,2.2l-0.4-4.6
		c2.5-1.2,5.3-1.9,8.1-1.9c5,0,8.2,2.7,8.2,7.9c0,5.6-5.7,10.9-10,15h11v4.3L61.9,139.5L61.9,139.5z"/>
</g>
</svg>
