<?xml version="1.0" encoding="utf-8"?>
<!-- Generator: Adobe Illustrator 25.2.1, SVG Export Plug-In . SVG Version: 6.00 Build 0)  -->
<svg version="1.1" id="Layer_1" xmlns:svgjs="http://svgjs.com/svgjs"
	 xmlns="http://www.w3.org/2000/svg" xmlns:xlink="http://www.w3.org/1999/xlink" x="0px" y="0px" viewBox="0 0 140 140"
	 style="enable-background:new 0 0 140 140;" xml:space="preserve">
<style type="text/css">
	.st0{fill:#1D2D36;}
</style>
<g transform="matrix(5.833333333333333,0,0,5.833333333333333,0,0)">
	<path class="st0" d="M18.1,7.2C18,7.1,17.9,7,17.8,7H14V5.6C14,5.3,14.1,5,14.5,5h3c0.1,0,0.3,0,0.4-0.2c0-0.1,0.1-0.2,0.1-0.3v-4
		C18,0.2,17.8,0,17.5,0h-4.3C8.4,0,8,4.1,8,5.4V7H5.5C5.2,7,5,7.2,5,7.5v4C5,11.8,5.2,12,5.5,12H8v11.5C8,23.8,8.2,24,8.5,24h5
		c0.3,0,0.5-0.2,0.5-0.5V12h3.4c0.3,0,0.5-0.2,0.5-0.4l0.4-4C18.3,7.4,18.2,7.3,18.1,7.2z"/>
</g>
</svg>
