<?xml version="1.0" encoding="utf-8"?>
<!-- Generator: Adobe Illustrator 25.2.1, SVG Export Plug-In . SVG Version: 6.00 Build 0)  -->
<svg version="1.1" id="Layer_1" xmlns:svgjs="http://svgjs.com/svgjs"
	 xmlns="http://www.w3.org/2000/svg" xmlns:xlink="http://www.w3.org/1999/xlink" x="0px" y="0px" viewBox="0 0 140 140"
	 style="enable-background:new 0 0 140 140;" xml:space="preserve">
<style type="text/css">
	.st0{fill:#1D2D36;}
</style>
<g transform="matrix(5.833333333333333,0,0,5.833333333333333,0,0)">
	<path class="st0" d="M17.5,0h-11C2.9,0,0,2.9,0,6.5v11C0,21.1,2.9,24,6.5,24h11c3.6,0,6.5-2.9,6.5-6.5v-11C24,2.9,21.1,0,17.5,0z
		 M12,17.5c-3,0-5.5-2.5-5.5-5.5S9,6.5,12,6.5S17.5,9,17.5,12S15,17.5,12,17.5z M18.5,6.5C17.7,6.5,17,5.8,17,5s0.7-1.5,1.5-1.5
		S20,4.2,20,5S19.3,6.5,18.5,6.5z"/>
</g>
</svg>
