<?xml version="1.0" encoding="utf-8"?>
<!-- Generator: Adobe Illustrator 25.2.1, SVG Export Plug-In . SVG Version: 6.00 Build 0)  -->
<svg version="1.1" id="Layer_1" xmlns:svgjs="http://svgjs.com/svgjs"
	 xmlns="http://www.w3.org/2000/svg" xmlns:xlink="http://www.w3.org/1999/xlink" x="0px" y="0px" viewBox="0 0 140 140"
	 style="enable-background:new 0 0 140 140;" xml:space="preserve">
<style type="text/css">
	.st0{fill:#CBCBCB;}
</style>
<g transform="matrix(5.833333333333333,0,0,5.833333333333333,0,0)">
	<path class="st0" d="M0.57,8h5.71v16H0.57V8z"/>
	<path class="st0" d="M0.57,2.86c0,1.58,1.27,2.86,2.83,2.86c1.57,0,2.83-1.28,2.83-2.86c0,0,0,0,0,0C6.24,1.28,4.97,0,3.41,0
		S0.57,1.28,0.57,2.86C0.57,2.86,0.57,2.86,0.57,2.86z"/>
	<path class="st0" d="M19.43,24h3.43c0.32,0,0.57-0.26,0.57-0.57v-9.6c0-4.31-2.43-6.4-5.84-6.4c-1.36-0.05-2.67,0.48-3.62,1.45
		C13.8,9.08,13.5,9.1,13.3,8.93c-0.1-0.09-0.16-0.22-0.16-0.36c0-0.32-0.26-0.57-0.57-0.57H9.14C8.83,8,8.57,8.26,8.57,8.57v14.86
		c0,0.32,0.26,0.57,0.57,0.57h3.43c0.32,0,0.57-0.26,0.57-0.57v-8.57c0-1.58,1.28-2.86,2.86-2.86s2.86,1.28,2.86,2.86v8.57
		C18.86,23.74,19.11,24,19.43,24z"/>
</g>
</svg>
