<?xml version="1.0" encoding="utf-8"?>
<!-- Generator: Adobe Illustrator 25.2.1, SVG Export Plug-In . SVG Version: 6.00 Build 0)  -->
<svg version="1.1" id="Layer_1" xmlns:svgjs="http://svgjs.com/svgjs"
	 xmlns="http://www.w3.org/2000/svg" xmlns:xlink="http://www.w3.org/1999/xlink" x="0px" y="0px" viewBox="0 0 140 140"
	 style="enable-background:new 0 0 140 140;" xml:space="preserve">
<style type="text/css">
	.st0{fill:#1D2D36;}
</style>
<g transform="matrix(5.833333333333333,0,0,5.833333333333333,0,0)">
	<path class="st0" d="M0.6,8h5.7v16H0.6V8z"/>
	<path class="st0" d="M0.6,2.9c0,1.6,1.3,2.9,2.8,2.9c1.6,0,2.8-1.3,2.8-2.9l0,0C6.2,1.3,5,0,3.4,0S0.6,1.3,0.6,2.9L0.6,2.9z"/>
	<path class="st0" d="M19.4,24h3.4c0.3,0,0.6-0.3,0.6-0.6v-9.6c0-4.3-2.4-6.4-5.8-6.4c-1.4-0.1-2.7,0.5-3.6,1.5
		c-0.2,0.2-0.5,0.2-0.7,0.1c-0.1-0.1-0.2-0.2-0.2-0.4c0-0.3-0.3-0.6-0.6-0.6H9.1C8.8,8,8.6,8.3,8.6,8.6v14.9c0,0.3,0.3,0.6,0.6,0.6
		h3.4c0.3,0,0.6-0.3,0.6-0.6v-8.6c0-1.6,1.3-2.9,2.9-2.9s2.9,1.3,2.9,2.9v8.6C18.9,23.7,19.1,24,19.4,24z"/>
</g>
</svg>
