<svg xmlns="http://www.w3.org/2000/svg" version="1.1" xmlns:xlink="http://www.w3.org/1999/xlink" xmlns:svgjs="http://svgjs.com/svgjs" viewBox="0 0 140 140" width="140" height="140"><g transform="matrix(5.833333333333333,0,0,5.833333333333333,0,0)"><path d="M10,9.71,7,4.26A.5.5,0,0,0,6.56,4H1.5a.5.5,0,0,0-.44.74l2.85,5.2L.07,16.24A.5.5,0,0,0,.5,17H5.57A.5.5,0,0,0,6,16.76l4-6.55A.5.5,0,0,0,10,9.71Z" fill="#cbcbcb" stroke="none" stroke-linecap="round" stroke-linejoin="round" stroke-width="0"></path><path d="M23.93.25A.5.5,0,0,0,23.5,0H18.13a.5.5,0,0,0-.43.25l-8,14a.5.5,0,0,0,0,.5l5.14,9a.5.5,0,0,0,.43.25h5.37a.5.5,0,0,0,.43-.75l-5-8.77L23.93.75A.5.5,0,0,0,23.93.25Z" fill="#cbcbcb" stroke="none" stroke-linecap="round" stroke-linejoin="round" stroke-width="0"></path></g></svg>