<?xml version="1.0" encoding="utf-8"?>
<!-- Generator: Adobe Illustrator 25.2.1, SVG Export Plug-In . SVG Version: 6.00 Build 0)  -->
<svg version="1.1" id="Layer_1" xmlns:svgjs="http://svgjs.com/svgjs"
	 xmlns="http://www.w3.org/2000/svg" xmlns:xlink="http://www.w3.org/1999/xlink" x="0px" y="0px" viewBox="0 0 140 140"
	 style="enable-background:new 0 0 140 140;" xml:space="preserve">
<style type="text/css">
	.st0{fill:#1D2D36;}
</style>
<g transform="matrix(5.833333333333333,0,0,5.833333333333333,0,0)">
	<path class="st0" d="M10,9.7L7,4.3C6.9,4.1,6.7,4,6.6,4H1.5C1.2,4,1,4.2,1,4.5c0,0.1,0,0.2,0.1,0.2l2.8,5.2l-3.8,6.3
		C0,16.4,0,16.7,0.3,16.9C0.3,17,0.4,17,0.5,17h5.1c0.2,0,0.3-0.1,0.4-0.2l4-6.6C10.1,10.1,10.1,9.9,10,9.7z"/>
	<path class="st0" d="M23.9,0.3C23.8,0.1,23.7,0,23.5,0h-5.4c-0.2,0-0.3,0.1-0.4,0.3l-8,14c-0.1,0.2-0.1,0.3,0,0.5l5.1,9
		c0.1,0.2,0.3,0.2,0.4,0.2h5.4c0.3,0,0.5-0.2,0.5-0.5c0-0.1,0-0.2-0.1-0.2l-5-8.8l7.9-13.7C24,0.6,24,0.4,23.9,0.3z"/>
</g>
</svg>
