<?xml version="1.0" encoding="utf-8"?>
<!-- Generator: Adobe Illustrator 25.2.1, SVG Export Plug-In . SVG Version: 6.00 Build 0)  -->
<svg version="1.1" id="Layer_1" xmlns="http://www.w3.org/2000/svg" xmlns:xlink="http://www.w3.org/1999/xlink" x="0px" y="0px"
	 viewBox="0 0 200 200" style="enable-background:new 0 0 200 200;" xml:space="preserve">
<style type="text/css">
	.st0{fill:#FBB416;}
	.st1{fill:#48BBEB;}
	.st2{fill:#EE3362;}
	.st3{fill:#BA2049;}
</style>
<path class="st0" d="M89.3,18.5L14.7,49.3c-4.1,1.7-4.1,7.6,0.1,9.3l74.9,29.7c6.6,2.6,13.9,2.6,20.5,0L185,58.6
	c4.2-1.7,4.2-7.5,0.1-9.3l-74.6-30.9C103.8,15.6,96.1,15.6,89.3,18.5"/>
<path class="st1" d="M106.6,104.5v74.2c0,3.5,3.6,5.9,6.8,4.6l83.4-32.4c1.9-0.8,3.2-2.6,3.2-4.6V72.1c0-3.5-3.6-5.9-6.8-4.6
	l-83.4,32.4C107.8,100.6,106.6,102.4,106.6,104.5"/>
<path class="st2" d="M87.1,108.3l-24.8,12l-2.5,1.2l-52.3,25C4.2,148.1,0,145.7,0,142V72.4c0-1.3,0.7-2.5,1.6-3.3
	c0.4-0.4,0.8-0.7,1.3-0.9c1.2-0.7,3-0.9,4.5-0.4l79.3,31.4C90.7,100.8,91,106.4,87.1,108.3"/>
<path class="st3" d="M87.1,108.3l-24.8,12L1.6,69.1c0.4-0.4,0.8-0.7,1.3-0.9c1.2-0.7,3-0.9,4.5-0.4l79.3,31.4
	C90.7,100.8,91,106.4,87.1,108.3"/>
</svg>
