<?xml version="1.0" encoding="utf-8"?>
<!-- Generator: Adobe Illustrator 25.2.1, SVG Export Plug-In . SVG Version: 6.00 Build 0)  -->
<svg version="1.1" id="Layer_1" xmlns="http://www.w3.org/2000/svg" xmlns:xlink="http://www.w3.org/1999/xlink" x="0px" y="0px"
	 viewBox="0 0 200 200" style="enable-background:new 0 0 200 200;" xml:space="preserve">
<style type="text/css">
	.st0{fill:#E0225B;}
	.st1{fill:#39C5EF;}
	.st2{fill:#2FB77E;}
	.st3{fill:#EBB22D;}
</style>
<path class="st0" d="M42.2,126.4c0,11.6-9.4,21-21,21s-21-9.4-21-21s9.4-21,21-21h21V126.4z M52.7,126.4c0-11.6,9.4-21,21-21
	s21,9.4,21,21V179c0,11.6-9.4,21-21,21s-21-9.4-21-21V126.4z"/>
<path class="st1" d="M73.7,42c-11.6,0-21-9.4-21-21s9.4-21,21-21s21,9.4,21,21v21H73.7z M73.7,52.7c11.6,0,21,9.4,21,21
	s-9.4,21-21,21H21c-11.6,0-21-9.4-21-21s9.4-21,21-21H73.7z"/>
<path class="st2" d="M157.8,73.7c0-11.6,9.4-21,21-21s21,9.4,21,21s-9.4,21-21,21h-21V73.7z M147.3,73.7c0,11.6-9.4,21-21,21
	s-21-9.4-21-21V21c0-11.6,9.4-21,21-21c11.6,0,21,9.4,21,21C147.3,21,147.3,73.7,147.3,73.7z"/>
<path class="st3" d="M126.3,158c11.6,0,21,9.4,21,21c0,11.6-9.4,21-21,21s-21-9.4-21-21v-21H126.3z M126.3,147.5
	c-11.6,0-21-9.4-21-21c0-11.6,9.4-21,21-21H179c11.6,0,21,9.4,21,21s-9.4,21-21,21H126.3z"/>
</svg>
