<?xml version="1.0" encoding="utf-8"?>
<!-- Generator: Adobe Illustrator 25.2.1, SVG Export Plug-In . SVG Version: 6.00 Build 0)  -->
<svg version="1.1" id="Layer_1" xmlns="http://www.w3.org/2000/svg" xmlns:xlink="http://www.w3.org/1999/xlink" x="0px" y="0px"
	 viewBox="0 0 200 200" style="enable-background:new 0 0 200 200;" xml:space="preserve">
<style type="text/css">
	.st0{fill:#3EAC49;}
</style>
<path class="st0" d="M43.1,118.7c0,8.4-9,14.7-21.2,14.7C9.6,133.5,0,127,0,116.9h10.9c0,3.9,4.7,7.2,11,7.2c5.8,0,9.8-2.5,9.8-5.4
	c0-7.5-31.4-0.1-31.4-18.4c0-8,8.6-14.8,20.8-14.8c12.3,0,21.1,7,21.1,17.1H31.3c0-3.9-3.8-7.8-10.2-7.8c-6,0-9.8,2.3-9.8,5.5
	C11.3,108.3,43.1,100.9,43.1,118.7z M51.9,68.8h10.9v63.3H51.9L51.9,68.8L51.9,68.8z M86.4,74.1c0,4.2-3.3,7.5-7.5,7.5
	s-7.5-3.3-7.5-7.5s3.3-7.5,7.5-7.5S86.4,69.9,86.4,74.1z M73.4,86.8h10.9v45.3H73.4V86.8z M130.4,68.8h10.9v63.3h-10.9v-5.6
	c-4,4.5-9.7,6.9-15.3,6.9c-11,0-22.1-8.6-22.1-24c0-15.5,11.1-24,22.1-24c5.6,0,11.3,2.4,15.3,6.8V68.8z M130.4,109.5
	c0-8.7-6.4-14-13.3-14c-6.9,0-13.3,5.2-13.3,14c0,8.6,6.3,13.9,13.3,13.9C124,123.5,130.4,118.1,130.4,109.5z M200,109.5
	c0,13.2-10.5,24-25,24c-14.5,0-25.1-10.8-25.1-24c0-14.1,10.6-24,25.1-24C189.5,85.5,200,95.4,200,109.5z M189,109.5
	c0-8.5-6.2-14.1-13.9-14.1c-7.9,0-14,5.6-14,14.1c0,8.3,6.2,14,14,14C182.7,123.5,189,117.8,189,109.5z"/>
</svg>
