<?xml version="1.0" encoding="utf-8"?>
<!-- Generator: Adobe Illustrator 25.2.1, SVG Export Plug-In . SVG Version: 6.00 Build 0)  -->
<svg version="1.1" id="Layer_1" xmlns="http://www.w3.org/2000/svg" xmlns:xlink="http://www.w3.org/1999/xlink" x="0px" y="0px"
	 viewBox="0 0 200 200" style="enable-background:new 0 0 200 200;" xml:space="preserve">
<style type="text/css">
	.st0{fill-rule:evenodd;clip-rule:evenodd;fill:url(#SVGID_1_);}
</style>
<linearGradient id="SVGID_1_" gradientUnits="userSpaceOnUse" x1="4.918" y1="193.3058" x2="4.918" y2="201.2398" gradientTransform="matrix(25.2082 0 0 -25.1919 -23.974 5069.6816)">
	<stop  offset="0" style="stop-color:#325BA9"/>
	<stop  offset="1" style="stop-color:#4B7BBE"/>
</linearGradient>
<path class="st0" d="M176.3,0.1H23.8C10.7,0.1,0,10.7,0,23.8v152.3c0,6.3,2.5,12.4,6.9,16.9c4.5,4.5,10.5,7,16.8,7h152.5
	c6.3,0,12.4-2.5,16.8-7s6.9-10.5,6.9-16.9V23.8C200,10.7,189.4,0.1,176.3,0.1z M86.3,144c0,2.1-0.9,4.1-2.4,5.6s-3.5,2.3-5.6,2.3
	H44.9c-4.4,0-7.9-3.6-7.9-7.9V44.9c0-4.4,3.5-7.9,7.9-7.9h33.3c4.4,0,7.9,3.6,7.9,7.9L86.3,144z M163.2,98.5c0,2.1-0.8,4.1-2.4,5.6
	s-3.5,2.3-5.7,2.3h-33.3c-4.4,0-7.9-3.6-7.9-7.9V44.9c0-4.4,3.6-7.9,7.9-7.9h33.3c4.4,0,7.9,3.6,7.9,7.9L163.2,98.5z"/>
</svg>
