<?xml version="1.0" encoding="utf-8"?>
<!-- Generator: Adobe Illustrator 25.2.1, SVG Export Plug-In . SVG Version: 6.00 Build 0)  -->
<svg version="1.1" id="Layer_1" xmlns="http://www.w3.org/2000/svg" xmlns:xlink="http://www.w3.org/1999/xlink" x="0px" y="0px"
	 viewBox="0 0 200 200" style="enable-background:new 0 0 200 200;" xml:space="preserve">
<style type="text/css">
	.st0{fill:#F04F23;}
</style>
<path class="st0" d="M198.6,83.3L198.6,83.3h-58.4l41.3-41.3c-6.5-9.1-14.5-17.1-23.6-23.6l-41.3,41.3V1.4c-5.5-0.9-11-1.4-16.6-1.4
	h-0.1c-5.7,0-11.2,0.5-16.6,1.4v58.4L42,18.5c-4.5,3.2-8.8,6.8-12.8,10.8l0,0c-3.9,3.9-7.6,8.2-10.8,12.8l41.3,41.3H1.4
	c0,0-1.4,11-1.4,16.6v0.1c0,5.7,0.5,11.2,1.4,16.6h58.4l-41.3,41.3C25,167,32.9,175,42.1,181.5l41.3-41.3v58.4
	c5.4,0.9,10.9,1.4,16.6,1.4h0.1c5.6,0,11.1-0.5,16.6-1.4v-58.4l41.3,41.3c4.5-3.2,8.8-6.9,12.8-10.8h0c3.9-4,7.5-8.2,10.8-12.8
	l-41.3-41.3h58.4c0.9-5.4,1.4-10.9,1.4-16.6v-0.1C200,94.4,199.5,88.8,198.6,83.3L198.6,83.3z M121.2,121.2
	c-6.7,2.5-13.9,3.8-21.1,3.8H100c-7.2,0-14.4-1.3-21.1-3.8c-2.5-6.7-3.8-13.9-3.8-21.1v-0.1c0-7.4,1.4-14.5,3.8-21.1
	c6.8-2.5,13.9-3.8,21.1-3.8h0.1c7.4,0,14.5,1.4,21.1,3.8c2.5,6.7,3.8,13.9,3.8,21.1v0.1h0l0,0C125,107.3,123.7,114.4,121.2,121.2z"
	/>
</svg>
