<?xml version="1.0" encoding="utf-8"?>
<!-- Generator: Adobe Illustrator 25.2.1, SVG Export Plug-In . SVG Version: 6.00 Build 0)  -->
<svg version="1.1" id="Layer_1" xmlns="http://www.w3.org/2000/svg" xmlns:xlink="http://www.w3.org/1999/xlink" x="0px" y="0px"
	 viewBox="0 0 200 200" style="enable-background:new 0 0 200 200;" xml:space="preserve">
<style type="text/css">
	.st0{clip-path:url(#SVGID_2_);fill:#221F1F;}
	.st1{clip-path:url(#SVGID_2_);fill:#24418E;}
</style>
<g>
	<g>
		<defs>
			<rect id="SVGID_1_" x="-22.95" y="-22.95" width="245.89" height="245.89"/>
		</defs>
		<clipPath id="SVGID_2_">
			<use xlink:href="#SVGID_1_"  style="overflow:visible;"/>
		</clipPath>
		<path class="st0" d="M39.48,67.79c2.18-1.99,4.38-3.71,6.59-5.15c2.21-1.44,4.5-2.63,6.85-3.55c2.35-0.93,4.84-1.6,7.46-2.01
			c2.62-0.41,5.47-0.62,8.53-0.62c4.9,0,9.21,0.65,12.93,1.94c3.71,1.29,6.66,3.23,8.84,5.81c0.82,0.95,1.5,1.89,2.04,2.8
			c0.54,0.92,0.99,1.92,1.33,3.01c0.34,1.09,0.58,2.28,0.72,3.57c0.14,1.29,0.2,2.79,0.2,4.48V90.3c0,1.36,0.05,2.38,0.15,3.06
			c0.1,0.68,0.26,1.16,0.46,1.43c0.2,0.27,0.51,0.54,0.92,0.81c0.54,0.34,1.16,0.58,1.84,0.72c0.68,0.14,1.77,0.2,3.27,0.2h5.21
			v10.12H59.2V96.52h5.11c1.63,0,2.84-0.08,3.63-0.25c0.78-0.17,1.41-0.49,1.89-0.96c0.27-0.27,0.48-0.56,0.61-0.86
			c0.14-0.3,0.24-0.83,0.31-1.57c0.07-0.74,0.12-1.79,0.15-3.14c0.03-1.35,0.05-3.21,0.05-5.58c0-1.62-0.05-3.02-0.15-4.21
			c-0.1-1.18-0.27-2.2-0.51-3.04c-0.24-0.84-0.58-1.57-1.02-2.18c-0.44-0.61-0.97-1.22-1.58-1.83c-1.23-1.08-2.9-1.94-5.01-2.59
			c-2.11-0.64-4.26-0.96-6.44-0.96c-6.74,0-12.33,2.37-16.76,7.1v8.31c0,2.37,0.02,4.21,0.05,5.53c0.03,1.32,0.1,2.33,0.2,3.04
			c0.1,0.71,0.26,1.2,0.46,1.47c0.2,0.27,0.48,0.54,0.82,0.81c0.54,0.34,1.16,0.58,1.84,0.71c0.68,0.14,1.77,0.2,3.27,0.2h5.11
			v10.12H3.72V96.52h5.11c1.63,0,2.84-0.08,3.63-0.25c0.78-0.17,1.41-0.49,1.89-0.97c0.27-0.27,0.49-0.54,0.66-0.81
			c0.17-0.27,0.29-0.76,0.36-1.47c0.07-0.71,0.1-1.71,0.1-3V54.8c0-1.36-0.05-2.37-0.15-3.05c-0.1-0.68-0.26-1.15-0.46-1.43
			c-0.2-0.27-0.51-0.54-0.92-0.81c-0.55-0.34-1.14-0.58-1.79-0.71c-0.65-0.14-1.75-0.2-3.32-0.2H3.72V38.48h35.76V67.79z"/>
		<path class="st0" d="M194.6,86c0,3.61-0.31,6.68-0.92,9.2c-0.61,2.52-1.6,4.8-2.96,6.85c-1.57,2.32-3.63,3.99-6.18,5.01
			c-2.55,1.02-5.98,1.53-10.27,1.53c-2.45,0-5.33-0.19-8.63-0.56c-3.31-0.37-6.39-0.87-9.25-1.48l-11.75-2.55
			c-1.57-0.34-2.88-0.61-3.93-0.82c-1.06-0.2-2.01-0.37-2.86-0.51c-0.85-0.14-1.64-0.22-2.35-0.26c-0.72-0.03-1.52-0.05-2.4-0.05
			c-2.86,0-5.04,0.38-6.54,1.12c-1.5,0.75-2.49,2.01-2.96,3.78h-11.75c0.07-4.22,0.24-7.79,0.51-10.71c0.27-2.92,0.8-5.46,1.58-7.6
			c0.78-2.14,1.82-4.08,3.12-5.82c1.29-1.73,3-3.52,5.11-5.36c1.5-1.09,2.93-2.04,4.29-2.86c1.36-0.82,2.86-1.55,4.5-2.19
			c1.63-0.65,3.49-1.26,5.57-1.84c2.08-0.58,4.58-1.21,7.51-1.89l8.89-1.63c1.97-0.41,3.58-0.76,4.8-1.07
			c1.23-0.31,2.35-0.66,3.37-1.07c1.77-0.61,3.15-1.55,4.14-2.81c0.99-1.26,1.48-2.7,1.48-4.33c0-2.99-1.45-5.3-4.34-6.94
			c-2.9-1.63-6.93-2.45-12.11-2.45c-3.07,0-5.84,0.26-8.33,0.79c-2.49,0.53-4.92,1.35-7.31,2.48c1.97,0.89,3.34,1.79,4.09,2.71
			c0.75,0.92,1.12,2.06,1.12,3.42c0,2.39-1.12,4.34-3.37,5.88c-2.25,1.53-5.21,2.3-8.89,2.3c-4.09,0-7.36-0.94-9.81-2.81
			c-2.45-1.87-3.68-4.41-3.68-7.61c0-5.31,3.23-9.43,9.71-12.36c6.47-2.93,15.67-4.39,27.59-4.39c13.08,0,23.33,1.67,30.76,5.01
			c3.27,1.57,5.89,3.85,7.87,6.85c1.97,3,2.96,6.27,2.96,9.81c0,4.36-1.31,8.07-3.93,11.14c-2.62,3.07-6.46,5.38-11.5,6.95
			c-2.18,0.75-4.48,1.33-6.9,1.74c-2.42,0.41-5.3,0.75-8.63,1.02l-11.96,0.92c-4.43,0.2-8.17,0.63-11.24,1.28
			c-3.07,0.65-5.6,1.53-7.61,2.66c-2.01,1.12-3.51,2.55-4.5,4.29c-0.99,1.74-1.58,3.83-1.79,6.28c4.22-4.43,11.45-6.64,21.66-6.64
			c0.82,0,1.57,0.02,2.25,0.05c0.68,0.03,1.43,0.07,2.25,0.11c0.82,0.04,1.75,0.11,2.81,0.21c1.05,0.11,2.4,0.27,4.04,0.48
			l11.55,1.29c1.02,0.14,1.91,0.22,2.66,0.26c0.75,0.04,1.5,0.05,2.25,0.05c1.84,0,3.42-0.17,4.75-0.51
			c1.33-0.34,2.42-0.88,3.27-1.63c0.85-0.75,1.53-1.74,2.04-2.96c0.51-1.23,0.87-2.72,1.07-4.5h9.09V86z"/>
		<path class="st1" d="M18.61,158.63c4.86,0,8.1-2.4,8.75-6.42c0.07-0.39,0.45-0.52,0.71-0.52c0.65,0,1.82,0.2,1.82,0.71
			c0,3.24-3.18,9.08-11.99,9.08c-7.46,0-13.87-5.25-13.87-15.3c0-8.1,5.38-15.3,13.87-15.3c8.23,0,12.45,5.38,12.45,12.71
			c0,1.62-1.95,1.81-12.84,1.81h-6.68C10.83,154.42,13.23,158.63,18.61,158.63 M17.25,143.07c3.18,0,5.58-0.13,6.55-0.32
			c0-6.68-1.3-9.27-5.97-9.27c-4.28,0-6.29,2.46-6.87,9.6H17.25z"/>
		<path class="st1" d="M52,134.84c-0.32,0-0.52-0.84-0.52-1.49c0-0.65,0.19-1.3,0.52-1.3c0.97,0,2.85,0.07,5.32,0.07
			c2.33,0,4.41-0.07,5.38-0.07c0.52,0,0.78,0.45,0.78,1.43c0,0.65-0.26,1.36-0.78,1.36c-0.52,0-1.82-0.13-3.24-0.13
			c-2.01,4.02-9.21,21.79-9.99,25.42c-0.13,0.65-0.65,0.97-2.14,0.97c-0.97,0-1.36-0.26-1.56-0.91c-1.04-3.44-7.26-20.29-9.66-25.48
			c-0.78,0-1.88,0.13-2.85,0.13c-0.39,0-0.58-0.71-0.58-1.36c0-0.65,0.19-1.43,0.58-1.43c1.43,0,2.4,0.07,6.22,0.07
			c4.54,0,6.29-0.07,7.2-0.07c0.52,0,0.84,0.52,0.84,1.49c0,0.65-0.32,1.3-0.84,1.3c-0.65,0-2.46-0.13-4.02-0.13
			c1.82,4.15,5.51,14.59,6.74,18.35c1.36-4.15,4.93-14,6.61-18.35C55.05,134.71,52.65,134.84,52,134.84"/>
		<path class="st1" d="M82.15,158.63c4.86,0,8.1-2.4,8.75-6.42c0.07-0.39,0.45-0.52,0.71-0.52c0.65,0,1.82,0.2,1.82,0.71
			c0,3.24-3.18,9.08-11.99,9.08c-7.46,0-13.87-5.25-13.87-15.3c0-8.1,5.38-15.3,13.87-15.3c8.23,0,12.45,5.38,12.45,12.71
			c0,1.62-1.95,1.81-12.84,1.81h-6.68C74.37,154.42,76.77,158.63,82.15,158.63 M80.79,143.07c3.18,0,5.58-0.13,6.55-0.32
			c0-6.68-1.3-9.27-5.97-9.27c-4.28,0-6.29,2.46-6.87,9.6H80.79z"/>
		<path class="st1" d="M108.47,134.71c-1.04,0-4.41,0.13-5.25,0.13c-0.45,0-0.78-0.52-0.78-1.49c0-0.78,0.26-1.3,0.84-1.3
			c1.82,0,5.19,0.07,9.85,0.07c0.91,0,1.1,0.13,1.1,1.1v6.55c2.72-6.81,7.97-8.88,12.06-8.88c5.38,0,8.04,3.7,8.04,9.01
			c0,6.74-0.13,12.12-0.13,17.96c2.14,0,3.83-0.13,4.8-0.13c0.39,0,0.58,0.71,0.58,1.36c0,0.65-0.19,1.36-0.58,1.36
			c-1.3,0-4.8-0.32-8.1-0.32c-3.37,0-6.29,0.32-7.52,0.32c-0.58,0-0.78-0.78-0.78-1.43c0-0.65,0.19-1.3,0.78-1.3
			c1.3,0,2.53,0.13,4.73,0.13v-17.83c0-3.57-0.78-6.09-3.96-6.09c-5.71,0-9.66,7.59-9.66,11.93c0,6.16,0.07,11.09,0.13,11.99
			c2.07,0,3.44-0.13,4.28-0.13c0.39,0,0.58,0.71,0.58,1.36c0,0.65-0.19,1.36-0.58,1.36c-1.23,0-4.28-0.32-7.65-0.32
			c-3.37,0-6.74,0.32-8.04,0.32c-0.52,0-0.78-0.78-0.78-1.43c0-0.65,0.26-1.3,0.78-1.3c1.36,0,2.92,0.13,5.25,0.13V134.71z"/>
		<path class="st1" d="M166.04,131.99c0.45,0,0.78,0.32,0.78,1.36c0,0.65-0.32,1.36-0.78,1.36c-1.04,0-7-0.13-8.88-0.13
			c0,6.94-0.13,14.13-0.13,18.67c0,4.21,0.84,5.45,3.5,5.45c2.92,0,4.41-2.2,4.41-6.16c0-0.39,0.45-0.52,0.91-0.52
			c0.58,0,1.36,0.32,1.36,1.23c0,2.92-2.01,8.23-7.91,8.23c-6.68,0-8.3-2.07-8.3-7.33c0-3.44,0.13-11.28,0.13-16.14v-3.37
			c-2.27,0-5.32,0.06-6.22,0.06c-0.32,0-0.58-0.78-0.58-1.43s0.26-1.3,0.58-1.3c0.91,0,3.57,0.13,6.22,0.19
			c0-1.88-0.06-5.25-0.06-7.59c0-0.65,0.32-1.1,1.17-1.1c0.65,0,1.17,0.13,2.2,0.13c0.78,0,1.17-0.13,1.95-0.13
			c0.78,0,1.04,0.32,1.04,1.17c0,1.69-0.26,4.86-0.26,7.52C159.69,132.12,165,131.99,166.04,131.99"/>
		<path class="st1" d="M194.18,134.06c0,1.75,0.07,3.89,0.07,5.06c0,0.65-0.39,0.84-1.17,0.84c-0.32,0-0.71-0.13-0.84-0.45
			c-1.69-4.21-3.05-6.22-6.94-6.22c-2.92,0-4.73,1.75-4.73,4.02c0,2.07,1.3,3.57,6.74,5.19c6.42,1.88,8.95,4.93,8.95,9.6
			c0,5.51-4.21,9.4-10.89,9.4c-5.96,0-9.73-2.08-9.73-3.76c0-2.14-0.06-5.51-0.06-7.2c0-0.52,0.32-0.78,1.3-0.78
			c0.32,0,0.78,0.26,0.84,0.58c2.01,6.94,4.47,8.69,7.98,8.69c3.96,0,6.09-2.2,6.09-4.8c0-2.53-1.1-4.47-6.48-5.97
			c-6.42-1.95-9.08-4.34-9.08-8.75c0-4.02,3.24-8.62,9.66-8.62C190.42,130.89,194.18,132.31,194.18,134.06"/>
	</g>
</g>
</svg>
