<?xml version="1.0" encoding="utf-8"?>
<!-- Generator: Adobe Illustrator 25.2.1, SVG Export Plug-In . SVG Version: 6.00 Build 0)  -->
<svg version="1.1" id="Layer_1" xmlns="http://www.w3.org/2000/svg" xmlns:xlink="http://www.w3.org/1999/xlink" x="0px" y="0px"
	 viewBox="0 0 200 200" style="enable-background:new 0 0 200 200;" xml:space="preserve">
<style type="text/css">
	.st0{fill:#2E499E;}
	.st1{fill:#5E83C2;}
</style>
<path class="st0" d="M158.29,0H42.12C18.97,0,0.2,17.54,0.2,39.17v53.02c26.12-15.69,81.31,8.5,104.29,6.09
	c21.66-2.28,71.16-22.66,95.71-7.36V39.17C200.2,17.54,181.44,0,158.29,0z"/>
<path class="st1" d="M104.49,111.31c-22.97,2.42-78.17-21.81-104.29-6.1v55.58C0.2,182.44,18.97,200,42.12,200h116.16
	c23.15,0,41.92-17.56,41.92-39.21v-56.85C175.65,88.62,126.15,109.03,104.49,111.31z"/>
</svg>
