<?xml version="1.0" encoding="utf-8"?>
<!-- Generator: Adobe Illustrator 25.2.1, SVG Export Plug-In . SVG Version: 6.00 Build 0)  -->
<svg version="1.1" id="Layer_1" xmlns="http://www.w3.org/2000/svg" xmlns:xlink="http://www.w3.org/1999/xlink" x="0px" y="0px"
	 viewBox="0 0 200 200" style="enable-background:new 0 0 200 200;" xml:space="preserve">
<style type="text/css">
	.st0{fill-rule:evenodd;clip-rule:evenodd;fill:#F15722;}
	.st1{fill:#FFFFFF;}
</style>
<rect y="0" class="st0" width="200" height="200"/>
<path class="st1" d="M37.69,66.3c2.46,0,4.77,0.46,6.92,1.38c2.15,0.92,3.91,2.26,5.29,4.04l-3.94,3c-2.13-2.66-4.94-3.99-8.42-3.99
	c-3.77,0-6.88,1.35-9.33,4.04c-2.44,2.69-3.67,6.07-3.67,10.14c0,3.94,1.21,7.19,3.62,9.75c2.41,2.56,5.54,3.84,9.38,3.84
	s6.88-1.56,9.11-4.68l3.99,3c-1.38,1.84-3.22,3.31-5.51,4.43c-2.3,1.12-4.86,1.67-7.68,1.67c-3.35,0-6.38-0.81-9.11-2.44
	c-2.72-1.62-4.87-3.86-6.45-6.69c-1.58-2.84-2.36-5.82-2.36-8.93c0-5.38,1.69-9.82,5.07-13.32C27.97,68.05,32.34,66.3,37.69,66.3z"
	/>
<path class="st1" d="M63.2,89.29H76.4l-6.5-16h-0.1L63.2,89.29z M72.21,67.19l14.92,34.85h-5.51l-3.49-8.61H61.53l-3.45,8.61h-5.51
	l15.36-34.85H72.21z"/>
<path class="st1" d="M99.83,89.29h13.19l-6.5-16h-0.1L99.83,89.29z M108.83,67.19l14.92,34.85h-5.51l-3.49-8.61H98.15l-3.45,8.61
	h-5.51l15.36-34.85H108.83z"/>
<path class="st1" d="M139.26,66.3c4.53,0,7.88,1.33,10.04,3.99l-3.84,3.49c-0.59-0.92-1.43-1.66-2.51-2.22
	c-1.08-0.56-2.33-0.84-3.74-0.84c-2.03,0-3.67,0.5-4.9,1.5s-1.85,2.29-1.85,3.86c0,2.63,1.74,4.46,5.22,5.51l4.38,1.43
	c2.46,0.79,4.34,1.89,5.64,3.3s1.94,3.35,1.94,5.81c0,3.22-1.14,5.82-3.42,7.8c-2.28,1.99-5.18,2.98-8.69,2.98
	c-5.02,0-8.73-1.61-11.12-4.82l3.89-3.35c0.75,1.18,1.79,2.1,3.1,2.76c1.31,0.66,2.74,0.98,4.28,0.98c1.94,0,3.58-0.56,4.92-1.67
	c1.35-1.12,2.02-2.49,2.02-4.13c0-1.21-0.41-2.23-1.23-3.05c-0.82-0.82-2.3-1.56-4.43-2.22l-3.1-1.03c-3.12-1.05-5.3-2.39-6.55-4.01
	c-1.25-1.62-1.87-3.72-1.87-6.28c0-2.72,1.1-5.04,3.3-6.94C132.94,67.25,135.78,66.3,139.26,66.3z"/>
<polygon class="st1" points="179.99,67.19 179.99,71.62 168.77,71.62 168.77,102.04 164.04,102.04 164.04,71.62 152.82,71.62 
	152.82,67.19 "/>
<path class="st1" d="M24.52,19.51v23.01c0,3.05,0.85,5.57,2.55,7.53c1.7,1.97,3.98,2.95,6.82,2.95c2.84,0,5.12-0.98,6.82-2.95
	c1.7-1.96,2.55-4.48,2.55-7.53V19.51h5.06v23.85c0,2.56-0.61,4.96-1.82,7.19c-1.21,2.23-2.93,3.98-5.16,5.27
	c-2.23,1.28-4.71,1.92-7.45,1.92c-4.21,0-7.67-1.38-10.37-4.13c-2.7-2.76-4.06-6.17-4.06-10.24V19.51H24.52z"/>
<path class="st1" d="M64.21,35.94c2.63,0,4.59-0.48,5.87-1.45c1.28-0.97,1.92-2.48,1.92-4.55c0-4-2.6-6-7.79-6h-6.85v12.01H64.21z
	 M65.68,19.51c3.65,0,6.51,0.91,8.58,2.74c2.07,1.83,3.11,4.39,3.11,7.69c0,2.49-0.85,4.67-2.55,6.53c-1.7,1.86-3.89,2.97-6.56,3.32
	h-0.05L78.8,56.8h-6.32L63,40.37h-5.63V56.8h-5.06V19.51H65.68z"/>
<path class="st1" d="M95.07,52.37c2.49,0,4.42-0.58,5.79-1.74c1.37-1.16,2.05-2.69,2.05-4.58c0-2.11-0.69-3.74-2.08-4.9
	c-1.39-1.16-3.34-1.74-5.87-1.74h-7.53v12.95H95.07z M94.49,34.99c2.11,0,3.77-0.48,4.98-1.45c1.21-0.97,1.82-2.34,1.82-4.13
	c0-1.69-0.53-3.02-1.58-4c-1.05-0.98-2.44-1.48-4.16-1.48h-8.11v11.06H94.49z M95.54,19.51c3.41,0,6.11,0.84,8.11,2.53
	c2,1.68,3,3.95,3,6.79c0,4.04-2.14,6.78-6.42,8.22v0.11h0.05c2.42,0.28,4.36,1.29,5.82,3.03c1.46,1.74,2.19,3.82,2.19,6.24
	c0,3.12-1.2,5.63-3.61,7.53c-2.41,1.9-5.5,2.84-9.29,2.84H82.38V19.51H95.54z"/>
<path class="st1" d="M120.08,43.16h14.11l-6.95-17.11h-0.11L120.08,43.16z M129.72,19.51l15.96,37.28h-5.9l-3.74-9.22h-17.75
	l-3.69,9.22h-5.9l16.43-37.28H129.72z"/>
<polygon class="st1" points="154.34,19.51 174.88,50.16 174.99,50.16 174.99,19.51 180.04,19.51 180.04,56.8 173.62,56.8 
	152.87,26.15 152.76,26.15 152.76,56.8 147.71,56.8 147.71,19.51 "/>
</svg>
