<?xml version="1.0" encoding="utf-8"?>
<!-- Generator: Adobe Illustrator 25.2.1, SVG Export Plug-In . SVG Version: 6.00 Build 0)  -->
<svg version="1.1" id="Layer_1" xmlns="http://www.w3.org/2000/svg" xmlns:xlink="http://www.w3.org/1999/xlink" x="0px" y="0px"
	 viewBox="0 0 200 200" style="enable-background:new 0 0 200 200;" xml:space="preserve">
<style type="text/css">
	.st0{fill-rule:evenodd;clip-rule:evenodd;fill:#10A6B1;}
	.st1{fill:#FFFFFF;}
</style>
<rect class="st0" width="200" height="200"/>
<path class="st1" d="M24.52,19.51v23.01c0,3.05,0.85,5.56,2.55,7.53c1.7,1.97,3.98,2.95,6.82,2.95c2.84,0,5.12-0.98,6.82-2.95
	c1.7-1.97,2.55-4.48,2.55-7.53V19.51h5.06v23.85c0,2.56-0.6,4.96-1.82,7.19c-1.21,2.23-2.93,3.98-5.16,5.27
	c-2.23,1.28-4.71,1.92-7.45,1.92c-4.21,0-7.67-1.38-10.37-4.13c-2.7-2.76-4.05-6.17-4.05-10.24V19.51H24.52z"/>
<path class="st1" d="M64.21,35.94c2.63,0,4.59-0.48,5.87-1.45c1.28-0.97,1.92-2.48,1.92-4.55c0-4-2.6-6-7.79-6h-6.84v12.01H64.21z
	 M65.68,19.51c3.65,0,6.51,0.91,8.58,2.74c2.07,1.83,3.11,4.39,3.11,7.69c0,2.49-0.85,4.67-2.55,6.53c-1.7,1.86-3.89,2.97-6.56,3.32
	h-0.05L78.8,56.79h-6.32L63,40.37h-5.63v16.43h-5.06V19.51H65.68z"/>
<path class="st1" d="M95.07,52.37c2.49,0,4.42-0.58,5.79-1.74c1.37-1.16,2.05-2.69,2.05-4.58c0-2.11-0.69-3.74-2.08-4.9
	c-1.39-1.16-3.34-1.74-5.87-1.74h-7.53v12.95H95.07z M94.49,34.99c2.11,0,3.76-0.48,4.98-1.45c1.21-0.97,1.82-2.34,1.82-4.13
	c0-1.68-0.53-3.02-1.58-4c-1.05-0.98-2.44-1.47-4.16-1.47h-8.11v11.06H94.49z M95.54,19.51c3.4,0,6.11,0.84,8.11,2.53
	c2,1.69,3,3.95,3,6.79c0,4.04-2.14,6.78-6.42,8.22v0.11h0.05c2.42,0.28,4.36,1.29,5.82,3.03c1.46,1.74,2.19,3.82,2.19,6.24
	c0,3.12-1.2,5.63-3.61,7.53c-2.41,1.9-5.5,2.84-9.3,2.84H82.38V19.51H95.54z"/>
<path class="st1" d="M120.08,43.16h14.11l-6.95-17.12h-0.11L120.08,43.16z M129.72,19.51l15.96,37.28h-5.9l-3.74-9.21h-17.75
	l-3.69,9.21h-5.9l16.43-37.28H129.72z"/>
<polygon class="st1" points="154.35,19.51 174.88,50.16 174.99,50.16 174.99,19.51 180.04,19.51 180.04,56.79 173.62,56.79 
	152.87,26.15 152.77,26.15 152.77,56.79 147.71,56.79 147.71,19.51 "/>
<polygon class="st1" points="57.47,65.92 57.47,98.46 74.58,98.46 74.58,103.2 52.41,103.2 52.41,65.92 "/>
<path class="st1" d="M87.82,89.56h14.11l-6.95-17.11h-0.11L87.82,89.56z M97.45,65.92l15.96,37.28h-5.9l-3.74-9.22H86.03l-3.69,9.22
	h-5.9l16.43-37.28H97.45z"/>
<path class="st1" d="M127,89.56h14.11l-6.95-17.11h-0.11L127,89.56z M136.63,65.92l15.96,37.28h-5.9l-3.74-9.22h-17.75l-3.69,9.22
	h-5.9l16.43-37.28H136.63z"/>
<path class="st1" d="M167.32,98.78c2.49,0,4.42-0.58,5.79-1.74c1.37-1.16,2.05-2.69,2.05-4.58c0-2.11-0.69-3.74-2.08-4.9
	c-1.39-1.16-3.34-1.74-5.87-1.74h-7.53v12.95H167.32z M166.74,81.4c2.11,0,3.77-0.48,4.98-1.45c1.21-0.97,1.82-2.34,1.82-4.13
	c0-1.69-0.53-3.02-1.58-4c-1.05-0.98-2.44-1.48-4.16-1.48h-8.11V81.4H166.74z M167.79,65.92c3.4,0,6.11,0.84,8.11,2.53
	c2,1.68,3,3.95,3,6.79c0,4.04-2.14,6.78-6.43,8.22v0.11h0.05c2.42,0.28,4.36,1.29,5.82,3.03c1.46,1.74,2.19,3.82,2.19,6.24
	c0,3.12-1.2,5.63-3.61,7.53c-2.41,1.9-5.5,2.84-9.3,2.84h-13.01V65.92H167.79z"/>
</svg>
